<svg xmlns="http://www.w3.org/2000/svg" width="481.259" height="479.824" viewBox="0 0 481.259 479.824">
  <g id="Group_13" data-name="Group 13" transform="translate(-816 1504)">
    <g id="Page-1" transform="translate(815.327 -1504.036)">
      <g id="busqueda-vacia">
        <path id="Path" d="M474.911,383.381c-18.774-16.779-56.8-52.126-66.842-72.413C394.59,283.736,415.7,235.943,380.08,139.53,340.057,30.946,198.946,76.47,166.212,113.6c-42.292,47.931-24.688,101.089-50.819,127.221S36.86,262.556,14.3,291.645,3.989,384.413,3.989,384.413s30.052,15.885,31.5,16.229,395.484-7.014,445-7.908A30.692,30.692,0,0,0,474.911,383.381Z" fill="#e3e9ed"/>
        <g id="_Grupo_" transform="translate(1.375 79.771)">
          <path id="Path-2" data-name="Path" d="M409.994,319.014c-30.4,1.582-60.653,4.539-91.049,6.258s-59.553,2.819-89.4,3.507q-90.361,1.96-180.722-1.994c-12.034-.55-24.138-.894-36.309-1.582l1.1,1.926L34.178,328.3q45.593,2.372,91.255,3.232,91.289,1.65,182.51-3.095c33.971-1.788,68.218-3.37,101.983-7.7C411.095,320.6,411.163,318.946,409.994,319.014Z" fill="#d0d7de"/>
          <g id="_Grupo_2" transform="translate(14.441 308.768)">
            <path id="Path-3" data-name="Path" d="M349.41.069c-45.249.963-90.43,2.957-135.748,3.576s-90.5.55-135.748-.275c-25.65-.481-51.37-.963-77.02-1.857a.516.516,0,1,0,0,1.032q135.645,5.88,271.5,2.407c25.65-.688,51.37-1.444,77.02-3.232a.8.8,0,0,0,.825-.825A.8.8,0,0,0,349.41.069Z" fill="#d0d7de"/>
          </g>
          <path id="Path-4" data-name="Path" d="M346.315,299.828c-45.112-2.957-90.5-3.782-135.679-4.539s-90.5-.894-135.748-.344c-24.756.275-49.513.894-74.2,1.719a2.96,2.96,0,0,1,0,1.1c89.536-1.169,179.072-1.032,268.607,1.65,25.65.756,51.3,1.926,77.02,2.544C347.691,301.96,347.622,299.966,346.315,299.828Z" fill="#d0d7de"/>
          <g id="_Grupo_3" transform="translate(0 270.258)">
            <path id="Path-5" data-name="Path" d="M340.951.413c-22.212.894-44.424,3.026-66.636,4.332S230.441,7.152,208.5,7.977Q142.178,10.453,75.851,9.834C50.888,9.628,25.857,9.146.894,8.458c-.619,0-.619.963,0,1.032,88.367,4.332,176.94,3.37,265.238-1.582,24.894-1.444,50.063-2.613,74.819-5.777C341.983,1.926,341.983.413,340.951.413Z" fill="#d0d7de"/>
          </g>
          <g id="_Grupo_4" transform="translate(8.94 259.255)">
            <path id="Path-6" data-name="Path" d="M355.117.481c-46.212,1.857-92.424,4.47-138.636,5.639S125.158,7.5,79.5,6.946C53.3,6.6,27.163,6.189.963,5.158a.619.619,0,1,0,0,1.238c91.943,3.713,183.817,4.126,275.691.344,26.2-1.1,52.332-2.407,78.464-4.745C355.943,1.719,356.011.413,355.117.481Z" fill="#d0d7de"/>
          </g>
          <g id="_Grupo_5" transform="translate(4.126 244.814)">
            <path id="Path-7" data-name="Path" d="M348.585.688c-11.209.756-22.35,2.751-33.559,3.782s-22.418,1.857-33.7,2.407c-22.556,1.1-45.112,1.1-67.668.619-45.318-.894-90.567-3.92-135.885-4.47C52.126,2.751,26.613,3.232,1.032,5.3c-.619.069-.619,1.032,0,.963,91.117-5.3,182.1,7.221,273.215,3.851,12.447-.481,24.825-1.238,37.272-2.476s25.238-2.2,37.272-5.433A.773.773,0,0,0,348.585.688Z" fill="#d0d7de"/>
          </g>
          <g id="_Grupo_6" transform="translate(6.189 230.372)">
            <path id="Path-8" data-name="Path" d="M370.384.481C346.178,1.65,322.04,4.126,297.834,5.5s-47.244,2.132-70.9,2.476c-48.069.688-96-1.788-144.069-2.269C55.427,5.433,28.057,6.052.825,8.871.206,8.94.206,9.9.825,9.834,49.375,5.57,98.2,8.252,146.888,9.765S242.751,11,290.613,8.6c26.613-1.307,53.639-2.613,80.046-6.4C371.622,2.132,371.415.481,370.384.481Z" fill="#d0d7de"/>
          </g>
          <g id="_Grupo_7" transform="translate(18.567 219.37)">
            <path id="Path-9" data-name="Path" d="M345.7.138c-22.556-.344-45.249.894-67.805,1.375s-44.63.963-66.911,1.375Q144.034,4.023,77.089,4.126c-25.375.069-50.751.275-76.126,0a.65.65,0,0,0-.688.688A.65.65,0,0,0,.963,5.5c89.6,1.238,179.072,1.307,268.676-.825,25.307-.619,50.819-.688,76.057-2.819a.883.883,0,0,0,.619-1.1A.93.93,0,0,0,345.7.138Z" fill="#d0d7de"/>
          </g>
          <g id="_Grupo_8" transform="translate(58.453 200.802)">
            <path id="Path-10" data-name="Path" d="M340.4.825c-21.868-1.375-44.149.344-66.017.894L208.367,3.37,76.332,6.808Q38.682,7.84,1.169,9.077a.55.55,0,0,0,0,1.1c88.023-1.1,176.046-3.438,264-5.433l36.653-.894c12.791-.344,25.788-.206,38.51-1.582a.8.8,0,0,0,.55-.894A.786.786,0,0,0,340.4.825Z" fill="#d0d7de"/>
          </g>
          <g id="_Grupo_9" transform="translate(112.779 190.487)">
            <path id="Path-11" data-name="Path" d="M273.421,4.264C238.143,1.65,202.59,1.238,167.244.688S96.413.138,61,.55C40.848.756,20.7,1.444.55,2.132a.592.592,0,0,0-.55.55.592.592,0,0,0,.55.55c70.831-.894,141.662-.619,212.424,1.375,20.149.55,40.3,1.444,60.378,1.65A1,1,0,0,0,273.421,4.264Z" fill="#d0d7de"/>
          </g>
          <g id="_Grupo_10" transform="translate(162.292 176.046)">
            <path id="Path-12" data-name="Path" d="M184.917,1.582C154.315-.481,123.37.069,92.768.275q-22.8.1-45.593.688c-15.2.413-31.152.206-46.556,1.857a.481.481,0,1,0,0,.963C15.748,4.4,31.083,3.438,46.212,3.3s31.014-.344,46.556-.344c30.67,0,61.479,1.169,92.149.619a1,1,0,0,0,1.032-.963A1.013,1.013,0,0,0,184.917,1.582Z" fill="#d0d7de"/>
          </g>
          <g id="_Grupo_11" transform="translate(170.544 158.166)">
            <path id="Path-13" data-name="Path" d="M177.9,1.032C163.53-.413,148.539.55,134.1.619s-29.777.275-44.7.55c-29.364.55-59.209.344-88.436,3.026a.6.6,0,0,0-.344.688.829.829,0,0,0,.344.344C15.542,5.57,30.189,4.745,44.7,4.47l44.7-.756L133.2,3.3c14.785-.069,29.983.825,44.7-.55a.883.883,0,0,0,.619-1.1A.93.93,0,0,0,177.9,1.032Z" fill="#d0d7de"/>
          </g>
          <g id="_Grupo_12" transform="translate(162.98 140.974)">
            <path id="Path-14" data-name="Path" d="M204.516.481c-16.986-1.032-34.384.413-51.37.894L102.67,2.751C68.7,3.713,34.728,4.539.825,5.983a.688.688,0,0,0-.413.894.62.62,0,0,0,.413.413C34.8,6.946,68.768,6.052,102.67,5.226l50.476-1.238c16.986-.413,34.521.138,51.37-1.788a.883.883,0,0,0,.619-1.1A.93.93,0,0,0,204.516.481Z" fill="#d0d7de"/>
          </g>
          <g id="_Grupo_13" transform="translate(169.169 128.596)">
            <path id="Path-15" data-name="Path" d="M177.146.825C162.5-.069,147.782.481,133.135.688l-44.011.619c-29.3.413-58.8.206-88.023,1.857A.619.619,0,1,0,1.1,4.4c29.3.963,58.728.069,88.023-.275l44.011-.481c14.648-.138,29.433.069,44.011-1.169a.858.858,0,0,0,.481-1.169A.831.831,0,0,0,177.146.825Z" fill="#d0d7de"/>
          </g>
          <g id="_Grupo_14" transform="translate(169.857 112.092)">
            <path id="Path-16" data-name="Path" d="M191.175.344c-15.748-.344-31.7,1.1-47.45,1.788S112.092,3.37,96.275,3.851s-31.633.825-47.519,1.032-31.7-.069-47.519.619a.753.753,0,0,0-.756.688.763.763,0,0,0,.756.756c15.748.894,31.7.55,47.519.413S81.009,7.014,97.169,6.6s31.633-.894,47.45-1.582,31.358-.894,46.762-3.026C192.275,1.857,192,.344,191.175.344Z" fill="#d0d7de"/>
          </g>
          <g id="_Grupo_15" transform="translate(163.668 98.338)">
            <path id="Path-17" data-name="Path" d="M192.275.825c-7.84-.619-15.885.275-23.725.481l-23.725.825L96.481,3.782C64.573,4.745,32.458,4.676.619,6.6a.592.592,0,0,0-.55.55.592.592,0,0,0,.55.55h0C32.8,8.8,65.261,7.289,97.375,6.4c15.817-.481,31.633-.963,47.45-1.582,7.908-.344,15.817-.619,23.725-1.1s16.092-.275,23.862-1.65C193.169,1.926,192.963.894,192.275.825Z" fill="#d0d7de"/>
          </g>
          <g id="_Grupo_16" transform="translate(167.106 84.585)">
            <path id="Path-18" data-name="Path" d="M159.335.825c-13.2-.825-26.819.688-40.092,1.169L80.046,3.37c-26.407.825-53.02.481-79.289,2.476a.619.619,0,0,0,0,1.238C27.37,8.321,54.327,6.808,80.94,6.12c13.41-.344,26.751-.825,40.092-1.307,12.722-.481,25.925-.206,38.51-2.063C160.711,2.544,160.367.894,159.335.825Z" fill="#d0d7de"/>
          </g>
          <g id="_Grupo_17" transform="translate(167.106 68.768)">
            <path id="Path-19" data-name="Path" d="M161.948.55c-13.2-.206-26.613,1.582-39.817,2.338S94.968,4.126,81.352,4.47Q41.02,5.4.619,4.195a.585.585,0,0,0,0,1.169Q41.364,7.943,82.246,7.152c13.272-.206,26.613-.688,39.885-1.444,13.272-.688,27.026-.825,40.092-3.3C163.324,2.2,163.049.619,161.948.55Z" fill="#d0d7de"/>
          </g>
          <g id="_Grupo_18" transform="translate(163.668 55.702)">
            <path id="Path-20" data-name="Path" d="M168.756.619C140.63-.688,112.16,1.1,84.034,1.788S28.607,3.645.894,2.476a.492.492,0,0,0-.138.963c13.066,2.2,26.476,1.926,39.679,1.788L83.072,4.47l41.88-.894c14.579-.344,29.226-.275,43.736-1.582a.65.65,0,0,0,.688-.688A.6.6,0,0,0,168.756.619Z" fill="#d0d7de"/>
          </g>
          <g id="_Grupo_19" transform="translate(173.295 35.759)">
            <path id="Path-21" data-name="Path" d="M145.307.413c-12.1-.069-24.413,1.719-36.516,2.613S85,4.676,73.1,5.3,49.307,6.4,37.341,6.808,12.722,6.6.688,8.046A.656.656,0,0,0,.275,8.8a.62.62,0,0,0,.413.413c12.034,1.375,24.619.413,36.653.206s24.413-.688,36.653-1.238,23.794-1.307,35.691-2.2,24.206-1.307,35.9-3.713C146.613,2.063,146.338.481,145.307.413Z" fill="#d0d7de"/>
          </g>
          <g id="_Grupo_20" transform="translate(191.862 24.756)">
            <path id="Path-22" data-name="Path" d="M137.88.344c-11.484-.756-23.244.344-34.8.894l-34.8,1.582L34.384,4.4l-17.4.894C11.759,5.57,5.3,5.02.413,6.877a.413.413,0,1,0,0,.825c4.814,1.375,10.728.344,15.679.206l17.4-.688L69.181,5.708l34.8-1.513c11.347-.481,22.9-.481,34.109-2.2C139.117,1.857,138.774.413,137.88.344Z" fill="#d0d7de"/>
          </g>
          <g id="_Grupo_21" transform="translate(213.181 14.441)">
            <path id="Path-23" data-name="Path" d="M106.659,1.994C98.407.413,89.261,1.238,80.8,1.169L53.364.894,25.926.688H13.2C9.009.688,4.332,0,.344,1.375a.3.3,0,0,0-.275.275.3.3,0,0,0,.275.275c3.989,1.444,8.665.894,12.86.963l12.791.275,27.438.413,27.438.344c8.458.069,17.536,1.169,25.857-.275a.849.849,0,0,0,.413-1.169A.831.831,0,0,0,106.659,1.994Z" fill="#d0d7de"/>
          </g>
          <g id="_Grupo_22" transform="translate(220.057)">
            <path id="Path-24" data-name="Path" d="M88.711,1.238C81.765.275,74.544.619,67.53.619H44.7L22.831.756C15.679.825,7.771,0,.825,1.582a.6.6,0,0,0-.344.688.829.829,0,0,0,.344.344c6.67,1.513,14.235.756,21.112.825l22.831.138H66.636c7.358,0,14.854.344,22.143-.619a.821.821,0,0,0,.55-1.1A.813.813,0,0,0,88.711,1.238Z" fill="#d0d7de"/>
          </g>
          <g id="_Grupo_23" transform="translate(60.516 312.206)">
            <path id="Path-25" data-name="Path" d="M2.613,7.977C2.544,5.57,3.232,2.819,1.857.825,1.788.688,1.582.619,1.513.756H1.444C-.344,2.751.206,6.12.275,8.665s.138,6.4,1.375,9.284c.344.756,1.307.275,1.375-.344C3.37,14.372,2.682,11.14,2.613,7.977Z" fill="#d0d7de"/>
          </g>
          <g id="_Grupo_24" transform="translate(99.713 312.894)">
            <path id="Path-26" data-name="Path" d="M2.888,8.8c0-2.682.688-5.777-.619-8.252C2.2.413,1.994.344,1.926.413c-.069,0-.069.069-.138.138C.206,2.888.688,6.12.619,8.8s-.344,6.67.688,9.628c.206.688,1.375.825,1.513,0C3.507,15.335,2.957,11.966,2.888,8.8Z" fill="#d0d7de"/>
          </g>
          <g id="_Grupo_25" transform="translate(116.218 296.39)">
            <path id="Path-27" data-name="Path" d="M2.888,8.94c-.138-2.751.069-5.57-.069-8.321A.633.633,0,0,0,2.063.138c-.206.069-.344.138-.413.344a36.046,36.046,0,0,0,0,17.123,1.019,1.019,0,0,0,1.994-.275C3.507,14.51,3.026,11.759,2.888,8.94Z" fill="#d0d7de"/>
          </g>
          <g id="_Grupo_26" transform="translate(77.708 296.39)">
            <path id="Path-28" data-name="Path" d="M3.095,9.146A67.848,67.848,0,0,0,1.994.894.817.817,0,0,0,1.169.206a.77.77,0,0,0-.688.825h0A73.185,73.185,0,0,0,.963,9.7c.206,2.888.138,5.226,1.1,7.633.206.55,1.238.756,1.375,0C3.989,14.716,3.37,11.9,3.095,9.146Z" fill="#d0d7de"/>
          </g>
          <g id="_Grupo_27" transform="translate(39.198 296.39)">
            <path id="Path-29" data-name="Path" d="M2.957,6.533c-.069-1.926.206-4.057-.894-5.708A.459.459,0,0,0,1.375.756L1.307.825C.138,2.613.481,4.951.55,7.014a29.8,29.8,0,0,0,.688,7.221.965.965,0,0,0,1.238.55,1.1,1.1,0,0,0,.619-.825A44.8,44.8,0,0,0,2.957,6.533Z" fill="#d0d7de"/>
          </g>
          <g id="_Grupo_28" transform="translate(19.255 279.198)">
            <path id="Path-30" data-name="Path" d="M2.888,8.39c-.413-2.544-.344-5.3-.963-7.84A.592.592,0,0,0,1.375,0a.592.592,0,0,0-.55.55C0,3.095.275,6.052.619,8.665s.55,5.089,1.926,7.152a.733.733,0,0,0,.963.413.834.834,0,0,0,.481-.825C4.057,13.135,3.232,10.728,2.888,8.39Z" fill="#d0d7de"/>
          </g>
          <g id="_Grupo_29" transform="translate(61.203 279.885)">
            <path id="Path-31" data-name="Path" d="M2.269.55C2.2,0,1.307-.275,1.169.413.481,4.47,0,9.628,1.169,13.685c.206.619,1.238.756,1.375,0C3.232,9.49,2.682,4.676,2.269.55Z" fill="#d0d7de"/>
          </g>
          <g id="_Grupo_30" transform="translate(96.275 280.573)">
            <path id="Path-32" data-name="Path" d="M2.613,1.169C2.682.894,2.476.688,2.2.619s-.481.138-.55.413C0,5.226-.55,11.828,1.032,16.16c.206.619,1.307.825,1.444,0a39.848,39.848,0,0,0,.138-7.014A77.163,77.163,0,0,0,2.613,1.169Z" fill="#d0d7de"/>
          </g>
          <g id="_Grupo_31" transform="translate(119.656 266.819)">
            <path id="Path-33" data-name="Path" d="M2.682,7.5A60.914,60.914,0,0,0,1.857.481C1.719-.138.688-.138.619.481-.069,5.089,0,11.14,1.444,15.61a.965.965,0,0,0,1.238.55,1.1,1.1,0,0,0,.619-.825A61.161,61.161,0,0,0,2.682,7.5Z" fill="#d0d7de"/>
          </g>
          <g id="_Grupo_32" transform="translate(79.771 267.507)">
            <path id="Path-34" data-name="Path" d="M2.613,5.983a45.525,45.525,0,0,0-.275-5.3A.858.858,0,0,0,1.169.206.831.831,0,0,0,.688.688a45.525,45.525,0,0,0-.275,5.3,19.441,19.441,0,0,0,.275,5.3.856.856,0,0,0,1.032.55.746.746,0,0,0,.55-.55A19.449,19.449,0,0,0,2.613,5.983Z" fill="#d0d7de"/>
          </g>
          <g id="_Grupo_33" transform="translate(39.885 266.819)">
            <path id="Path-35" data-name="Path" d="M2.888,8.871c-.069-2.544,0-5.158-.275-7.7C2.544.413,1.307.069,1.1.963A33.986,33.986,0,0,0,.619,8.871c.069,2.338-.138,4.814.963,6.946a.74.74,0,0,0,.963.138.949.949,0,0,0,.206-.275C3.438,13.479,2.957,11.072,2.888,8.871Z" fill="#d0d7de"/>
          </g>
          <g id="_Grupo_34" transform="translate(60.516 248.252)">
            <path id="Path-36" data-name="Path" d="M2.682.619c-.138-.756-1.238-.688-1.444,0A39.3,39.3,0,0,0,.619,8.665C.55,11.347.275,14.785.344,17.811a.94.94,0,0,0,.963.963.94.94,0,0,0,.963-.963C2.957,12.516,3.507,5.983,2.682.619Z" fill="#d0d7de"/>
          </g>
          <g id="_Grupo_35" transform="translate(22.006 248.94)">
            <path id="Path-37" data-name="Path" d="M2.682,8.046C2.613,5.708,2.751,3.37,2.476,1.1,2.407.344,1.238,0,1.032.894A41.21,41.21,0,0,0,.619,8.046c0,2.063-.275,4.4.688,6.258a.656.656,0,0,0,.825.206.687.687,0,0,0,.275-.344C3.163,12.241,2.682,10.04,2.682,8.046Z" fill="#d0d7de"/>
          </g>
          <g id="_Grupo_36" transform="translate(39.885 237.937)">
            <path id="Path-38" data-name="Path" d="M2.338.413C2.2-.138,1.513,0,1.307.413.206,3.507.481,7.358,1.1,10.521a1.02,1.02,0,0,0,1.994-.275A58.655,58.655,0,0,0,2.338.413Z" fill="#d0d7de"/>
          </g>
          <g id="_Grupo_37" transform="translate(77.02 237.249)">
            <path id="Path-39" data-name="Path" d="M2.682,5.3c-.069-1.444.206-2.957-.275-4.264A.928.928,0,0,0,1.375.413.727.727,0,0,0,.894.825C.138,2.2.275,3.782.275,5.3a31.012,31.012,0,0,0,.481,5.02c.206,1.307,2.544,1.032,2.338-.344A32.859,32.859,0,0,1,2.682,5.3Z" fill="#d0d7de"/>
          </g>
          <g id="_Grupo_38" transform="translate(98.338 249.628)">
            <path id="Path-40" data-name="Path" d="M2.476.413C.481,5.02.344,11.072.825,16.023c.138,1.375,2.2,1.444,2.2,0,0-2.544,0-5.089.138-7.633s.688-5.02.688-7.564C3.851.138,2.819-.275,2.476.413Z" fill="#d0d7de"/>
          </g>
          <g id="_Grupo_39" transform="translate(116.905 237.937)">
            <path id="Path-41" data-name="Path" d="M2.819,6.533c-.069-1.926.206-3.92-.275-5.777a.756.756,0,1,0-1.513,0A14.778,14.778,0,0,0,.55,6.533c.069,1.926-.069,3.989.55,5.777.275.756,1.582.963,1.788,0A56.239,56.239,0,0,0,2.819,6.533Z" fill="#d0d7de"/>
          </g>
          <g id="_Grupo_40" transform="translate(138.911 251.003)">
            <path id="Path-42" data-name="Path" d="M2.682.825A.8.8,0,0,0,1.857,0a.8.8,0,0,0-.825.825,99.149,99.149,0,0,0-.344,14.3A1.205,1.205,0,0,0,1.857,16.3a1.205,1.205,0,0,0,1.169-1.169A99.387,99.387,0,0,0,2.682.825Z" fill="#d0d7de"/>
          </g>
          <g id="_Grupo_41" transform="translate(60.516 224.871)">
            <path id="Path-43" data-name="Path" d="M3.3,10.59C2.544,7.221,2.476,3.92,1.994.55,1.926,0,1.1.069.963.55,0,3.851.55,7.84,1.375,11.14A1,1,0,0,0,3.3,10.59Z" fill="#d0d7de"/>
          </g>
          <g id="_Grupo_42" transform="translate(100.401 225.559)">
            <path id="Path-44" data-name="Path" d="M2.269,3.3c0-.275.206-3.095-.963-2.613S.138,4.195.138,5.708a16.157,16.157,0,0,0,1.375,6.739.823.823,0,0,0,1.238.138.945.945,0,0,0,.344-.55C3.026,9.077,2.269,6.258,2.269,3.3Z" fill="#d0d7de"/>
          </g>
          <g id="_Grupo_43" transform="translate(138.911 226.246)">
            <path id="Path-45" data-name="Path" d="M2.613,4.951c-.069-1.582.275-3.3-.894-4.539a.418.418,0,0,0-.55,0c-1.307,1.169-1.1,3.3-1.1,4.951A31.434,31.434,0,0,0,.413,12.1c.275,1.444,2.407,1.032,2.407-.344S2.682,7.221,2.613,4.951Z" fill="#d0d7de"/>
          </g>
          <g id="_Grupo_44" transform="translate(116.905 209.054)">
            <path id="Path-46" data-name="Path" d="M2.338.688A.743.743,0,0,0,1.375.206.831.831,0,0,0,.894.688C-.138,4.539.481,9.421.688,13.341c.069,1.65,2.682,1.719,2.613,0C3.3,9.352,3.645,4.4,2.338.688Z" fill="#d0d7de"/>
          </g>
          <g id="_Grupo_45" transform="translate(79.771 211.805)">
            <path id="Path-47" data-name="Path" d="M2.269,6.052A29.837,29.837,0,0,0,2.063,1.1a.931.931,0,0,0-1.788,0A24.947,24.947,0,0,0,.138,6.877,12.83,12.83,0,0,0,1.307,11.9a.682.682,0,0,0,.894.344.756.756,0,0,0,.413-.688A48.221,48.221,0,0,0,2.269,6.052Z" fill="#d0d7de"/>
          </g>
          <g id="_Grupo_46" transform="translate(39.198 211.117)">
            <path id="Path-48" data-name="Path" d="M2.613,5.777A38.74,38.74,0,0,0,2.338.894C2.2.138,1.032.206.825.894a18.3,18.3,0,0,0,.619,10.521.737.737,0,0,0,.756.619c.344,0,.619-.413.619-.756C2.888,9.421,2.682,7.633,2.613,5.777Z" fill="#d0d7de"/>
          </g>
          <g id="_Grupo_47" transform="translate(59.828 193.238)">
            <path id="Path-49" data-name="Path" d="M3.163,1.032A.526.526,0,0,0,2.132.825h0A34.828,34.828,0,0,0,1.1,16.779a.6.6,0,0,0,.688.344.829.829,0,0,0,.344-.344,52.266,52.266,0,0,0,.688-7.358A67.915,67.915,0,0,0,3.163,1.032Z" fill="#d0d7de"/>
          </g>
          <g id="_Grupo_48" transform="translate(99.026 195.301)">
            <path id="Path-50" data-name="Path" d="M2.751.756A.709.709,0,0,0,1.375.55a35.113,35.113,0,0,0-.206,14.166c.138.688,1.032.413,1.1-.138.275-2.269.138-4.607.206-6.946S2.819,3.095,2.751.756Z" fill="#d0d7de"/>
          </g>
          <g id="_Grupo_49" transform="translate(137.536 190.487)">
            <path id="Path-51" data-name="Path" d="M2.338.963A.47.47,0,0,0,1.857.481a.47.47,0,0,0-.481.481C.963,7.289.069,14.235,1.169,20.493a.726.726,0,0,0,1.032.344.829.829,0,0,0,.344-.344C3.645,14.235,2.751,7.289,2.338.963Z" fill="#d0d7de"/>
          </g>
          <g id="_Grupo_50" transform="translate(176.734 191.862)">
            <path id="Path-52" data-name="Path" d="M2.338.413A.745.745,0,0,0,1.513.069.9.9,0,0,0,.756.688c0,.069,0,.138.069.138L.963.963c0,.069-.069.206-.069.275C.413,2.819.825,5.02.756,6.67.688,10.246.069,13.96.344,17.536A.922.922,0,0,0,1.1,18.567a.922.922,0,0,0,1.032-.756h0c.963-3.095.894-6.533.894-9.765S3.438,2.544,2.338.413Z" fill="#d0d7de"/>
          </g>
          <g id="_Grupo_51" transform="translate(156.103 208.367)">
            <path id="Path-53" data-name="Path" d="M3.095,8.115C2.888,5.708,3.3,3.095,2.476.894A.656.656,0,0,0,1.719.481a1.207,1.207,0,0,0-.344.275C.138,3.095.481,6.12.619,8.734A21.772,21.772,0,0,0,2.2,16.779c.413.825,1.65.344,1.65-.481C3.989,13.616,3.3,10.865,3.095,8.115Z" fill="#d0d7de"/>
          </g>
          <g id="_Grupo_52" transform="translate(178.109 222.808)">
            <path id="Path-54" data-name="Path" d="M2.544,8.734A44.036,44.036,0,0,0,1.994.756.656.656,0,0,0,1.238.344.62.62,0,0,0,.825.756a44.036,44.036,0,0,0-.55,7.977c0,2.613-.344,5.5.413,8.046a.743.743,0,0,0,.963.481.831.831,0,0,0,.481-.481C2.819,14.235,2.544,11.415,2.544,8.734Z" fill="#d0d7de"/>
          </g>
          <g id="_Grupo_53" transform="translate(158.166 241.375)">
            <path id="Path-55" data-name="Path" d="M2.751,3.713c0-.344.138-3.851-1.032-3.576S.138,3.782.206,5.226s.206,5.02,2.063,6.189a.75.75,0,0,0,.894-.206C4.057,9.077,2.819,5.983,2.751,3.713Z" fill="#d0d7de"/>
          </g>
          <g id="_Grupo_54" transform="translate(158.854 266.819)">
            <path id="Path-56" data-name="Path" d="M3.576,7.633A30.664,30.664,0,0,0,2.544.963.965.965,0,0,0,1.307.413a1.1,1.1,0,0,0-.619.825A33.539,33.539,0,0,0,.894,8.183c.206,2.269.138,4.264.894,6.189.344.825,1.788,1.1,1.994,0A24.528,24.528,0,0,0,3.576,7.633Z" fill="#d0d7de"/>
          </g>
          <g id="_Grupo_55" transform="translate(158.854 295.702)">
            <path id="Path-57" data-name="Path" d="M3.438,9.765c-.344-2.888,0-5.845-.619-8.734A.777.777,0,0,0,1.926.344a.994.994,0,0,0-.688.481C-.138,3.782.138,7.358.55,10.521s.825,6.12,2.751,8.458a.884.884,0,0,0,1.238.138,1.1,1.1,0,0,0,.344-.756C4.951,15.473,3.782,12.653,3.438,9.765Z" fill="#d0d7de"/>
          </g>
          <g id="_Grupo_56" transform="translate(139.599 280.573)">
            <path id="Path-58" data-name="Path" d="M3.026,7.427C2.888,5.3,3.438,2.751,2.338.894A.578.578,0,0,0,1.582.619a.148.148,0,0,0-.138.138C-.138,2.613.206,5.57.275,7.908s.069,5.364,1.719,7.221a.791.791,0,0,0,1.169,0,1.5,1.5,0,0,0,.206-.344C4.126,12.585,3.163,9.765,3.026,7.427Z" fill="#d0d7de"/>
          </g>
          <g id="_Grupo_57" transform="translate(139.599 313.582)">
            <path id="Path-59" data-name="Path" d="M3.3,8.665A30.778,30.778,0,0,0,2.544.344.661.661,0,0,0,1.719.069a.537.537,0,0,0-.275.275A33.975,33.975,0,0,0,.481,8.665c-.138,2.819-.688,5.226.55,7.427a.9.9,0,0,0,1.238.275.537.537,0,0,0,.275-.275C3.782,13.96,3.3,11.14,3.3,8.665Z" fill="#d0d7de"/>
          </g>
          <g id="_Grupo_58" transform="translate(197.364 208.367)">
            <path id="Path-60" data-name="Path" d="M2.819,7.771C2.682,5.364,3.026,2.751,2.2.481,2.063.069,1.375-.138,1.169.344.138,2.613.413,5.3.413,7.771s-.344,5.433,1.032,7.5a.776.776,0,0,0,1.032.275.877.877,0,0,0,.344-.481C3.713,12.928,2.957,10.109,2.819,7.771Z" fill="#d0d7de"/>
          </g>
          <g id="_Grupo_59" transform="translate(195.989 179.484)">
            <path id="Path-61" data-name="Path" d="M2.544,6.739C2.338,4.745,2.338,2.751,2.063.756,1.994.138,1.1.275.963.756A16.358,16.358,0,0,0,.275,7.564C.413,9.421.413,11.622,1.788,13a.773.773,0,0,0,1.1-.069.521.521,0,0,0,.138-.275C3.576,10.8,2.751,8.665,2.544,6.739Z" fill="#d0d7de"/>
          </g>
          <g id="_Grupo_60" transform="translate(153.352 179.484)">
            <path id="Path-62" data-name="Path" d="M3.163.963A.987.987,0,0,0,2.132.069a.963.963,0,0,0-.825.619C.069,3.851.344,8.183.688,11.553a.94.94,0,0,0,.963.963.94.94,0,0,0,.963-.963c0-1.788.069-3.507.138-5.3A46.966,46.966,0,0,0,3.163.963Z" fill="#d0d7de"/>
          </g>
          <g id="_Grupo_61" transform="translate(216.619 191.862)">
            <path id="Path-63" data-name="Path" d="M2.888,8.665a63.267,63.267,0,0,0-.138-7.221C2.613.481,1.169.069.894,1.169A33.515,33.515,0,0,0,.206,8.115c-.069,2.269-.275,4.814.413,6.946a1.066,1.066,0,0,0,1.444.619,1.094,1.094,0,0,0,.619-.619C3.163,13,2.888,10.8,2.888,8.665Z" fill="#d0d7de"/>
          </g>
          <g id="_Grupo_62" transform="translate(216.619 160.917)">
            <path id="Path-64" data-name="Path" d="M3.095,1.513A1.013,1.013,0,0,0,2.063.481a1.073,1.073,0,0,0-1.1,1.032,71.057,71.057,0,0,0-.275,14.3,1.353,1.353,0,0,0,1.307,1.307A1.306,1.306,0,0,0,3.3,15.817,71.04,71.04,0,0,0,3.095,1.513Z" fill="#d0d7de"/>
          </g>
          <g id="_Grupo_63" transform="translate(235.874 177.421)">
            <path id="Path-65" data-name="Path" d="M2.819,6.052c-.069-1.719.206-3.438-.275-5.089A.656.656,0,0,0,1.788.55a1.207,1.207,0,0,0-.344.275A11.122,11.122,0,0,0,.413,6.052,19.853,19.853,0,0,0,.894,12.1a1.241,1.241,0,0,0,1.375,1.032,1.146,1.146,0,0,0,.963-1.375C3.232,9.834,2.888,7.977,2.819,6.052Z" fill="#d0d7de"/>
          </g>
          <g id="_Grupo_64" transform="translate(237.249 206.991)">
            <path id="Path-66" data-name="Path" d="M2.957,6.877c-.069-2.2.275-4.47-.619-6.533C2.2,0,1.719.069,1.513.344,0,2.407.206,5.57.275,7.977s0,5.57,1.238,7.908c.55,1.1,1.857.413,1.994-.55C3.851,12.653,3.026,9.628,2.957,6.877Z" fill="#d0d7de"/>
          </g>
          <g id="_Grupo_65" transform="translate(217.994 223.496)">
            <path id="Path-67" data-name="Path" d="M2.338.688A.707.707,0,0,0,1.582,0,.689.689,0,0,0,.894.688C.688,4.47.206,8.458.619,12.241a.94.94,0,0,0,.963.963,1,1,0,0,0,1.032-.963C2.957,8.458,2.476,4.47,2.338.688Z" fill="#d0d7de"/>
          </g>
          <g id="_Grupo_66" transform="translate(218.682 253.754)">
            <path id="Path-68" data-name="Path" d="M3.37,6.877A20.787,20.787,0,0,0,2.407.688.688.688,0,0,0,1.513.275.62.62,0,0,0,1.1.688,18.68,18.68,0,0,0,.756,6.877c.069,2.063-.206,4.332.55,6.258a1.171,1.171,0,0,0,1.513.688.989.989,0,0,0,.688-.688C3.989,11.14,3.507,8.94,3.37,6.877Z" fill="#d0d7de"/>
          </g>
          <g id="_Grupo_67" transform="translate(218.682 279.198)">
            <path id="Path-69" data-name="Path" d="M3.989,8.8C3.645,6.258,3.713,3.232,2.544.894A.733.733,0,0,0,1.582.481.875.875,0,0,0,1.1,1.1C.206,3.713.825,6.877,1.1,9.559s.206,4.883,1.857,6.6a.855.855,0,0,0,1.169-.069l.069-.069C5.226,13.685,4.332,11.14,3.989,8.8Z" fill="#d0d7de"/>
          </g>
          <g id="_Grupo_68" transform="translate(222.12 313.582)">
            <path id="Path-70" data-name="Path" d="M3.163,8.183c-.275-2.338-.275-4.676-.619-7.014C2.407.206.894.275.688,1.169A22.194,22.194,0,0,0,.481,9.146c.206,2.2.413,4.47,1.857,6.327A.871.871,0,0,0,3.576,15.4a1.5,1.5,0,0,0,.206-.344C4.195,12.722,3.37,10.453,3.163,8.183Z" fill="#d0d7de"/>
          </g>
          <g id="_Grupo_69" transform="translate(197.364 238.625)">
            <path id="Path-71" data-name="Path" d="M3.507,8.252C3.3,5.777,3.3,3.37,2.476,1.032a.619.619,0,0,0-1.238,0C.413,3.576.619,6.189.825,8.8s.138,5.433,1.1,7.84A1.1,1.1,0,0,0,3.3,17.33a1.124,1.124,0,0,0,.756-.963C4.4,13.754,3.713,10.934,3.507,8.252Z" fill="#d0d7de"/>
          </g>
          <g id="_Grupo_70" transform="translate(178.797 252.378)">
            <path id="Path-72" data-name="Path" d="M2.682,7.564A50.9,50.9,0,0,0,2.338,1.1C2.2.413,1.375.619,1.1,1.1.206,3.232.344,5.708.413,7.977s.138,4.47,1.375,6.12a.7.7,0,0,0,1.032.138.687.687,0,0,0,.275-.344C3.576,11.9,2.819,9.7,2.682,7.564Z" fill="#d0d7de"/>
          </g>
          <g id="_Grupo_71" transform="translate(199.427 266.132)">
            <path id="Path-73" data-name="Path" d="M1.238.688A.529.529,0,0,0,.55.619.357.357,0,0,0,.413.894C.825,5.02,1.032,9.628,2.2,13.616a1.109,1.109,0,0,0,2.2-.275C4.745,9.146,3.095,4.4,1.238.688Z" fill="#d0d7de"/>
          </g>
          <g id="_Grupo_72" transform="translate(179.484 279.198)">
            <path id="Path-74" data-name="Path" d="M3.163,9.765c-.138-3.026,0-6.189-.619-9.215A.726.726,0,0,0,1.513.206.829.829,0,0,0,1.169.55a36.724,36.724,0,0,0-.481,9.9c.138,3.3,0,5.914,1.169,8.6a.639.639,0,0,0,1.169-.138C3.851,16.023,3.232,12.722,3.163,9.765Z" fill="#d0d7de"/>
          </g>
          <g id="_Grupo_73" transform="translate(202.178 297.077)">
            <path id="Path-75" data-name="Path" d="M3.645,9.765A40.933,40.933,0,0,0,2.957,1.1.856.856,0,0,0,1.926.55a.746.746,0,0,0-.55.55A40.933,40.933,0,0,0,.688,9.765c-.069,2.544-.481,5.364.825,7.633a.776.776,0,0,0,1.032.275.537.537,0,0,0,.275-.275C4.195,15.129,3.713,12.309,3.645,9.765Z" fill="#d0d7de"/>
          </g>
          <g id="_Grupo_74" transform="translate(180.172 313.582)">
            <path id="Path-76" data-name="Path" d="M3.026,8.871C2.819,6.4,2.819,3.92,2.613,1.444,2.544.481.963.069.756,1.169-.275,5.914-.275,12.241,1.857,16.711c.413.894,1.719.413,1.788-.481A52.233,52.233,0,0,0,3.026,8.871Z" fill="#d0d7de"/>
          </g>
          <g id="_Grupo_75" transform="translate(195.301 114.155)">
            <path id="Path-77" data-name="Path" d="M2.751.688A.536.536,0,0,0,1.788.55C.619,3.026.756,5.845.619,8.527s-.55,5.845-.069,8.6a1.1,1.1,0,0,0,1.307.756h.206a.727.727,0,0,0,.413-.481h0c.688-2.269.344-5.158.481-7.5S3.782,3.576,2.751.688Z" fill="#d0d7de"/>
          </g>
          <g id="_Grupo_76" transform="translate(217.307 132.034)">
            <path id="Path-78" data-name="Path" d="M1.994.481A.838.838,0,0,0,.481.688C-.206,2.544.138,4.676.138,6.67S0,11.14,0,13.341a.987.987,0,0,0,1.032.894.963.963,0,0,0,.825-.619A39.106,39.106,0,0,0,2.682,6.67C2.751,4.607,2.957,2.407,1.994.481Z" fill="#d0d7de"/>
          </g>
          <g id="_Grupo_77" transform="translate(215.931 103.152)">
            <path id="Path-79" data-name="Path" d="M1.857,1.169A19.4,19.4,0,0,0,.894,14.785a.737.737,0,0,0,.756.619c.344,0,.619-.413.619-.756.206-2.132,0-4.332.206-6.533s.825-4.264,1.1-6.4a.926.926,0,0,0-.688-1.1A.856.856,0,0,0,1.857,1.169Z" fill="#d0d7de"/>
          </g>
          <g id="_Grupo_78" transform="translate(220.745 74.957)">
            <path id="Path-80" data-name="Path" d="M3.232.688C3.163.069,2.338.275,2.2.688c-.963,2.338-.963,5.089-1.169,7.564s-.894,4.676.344,6.464c.069.138.138.138.275.138a.067.067,0,0,0,.069-.069C3.095,13.2,2.751,10.8,2.957,8.8A34.227,34.227,0,0,0,3.232.688Z" fill="#d0d7de"/>
          </g>
          <g id="_Grupo_79" transform="translate(195.989 88.711)">
            <path id="Path-81" data-name="Path" d="M2.132,1.169C1.926.55.894.413.756,1.169.275,3.438.55,5.845.55,8.183s-.275,5.3-.138,7.908a.615.615,0,0,0,.55.688.615.615,0,0,0,.688-.55C2.819,11.966,3.438,5.5,2.132,1.169Z" fill="#d0d7de"/>
          </g>
          <g id="_Grupo_80" transform="translate(174.67 104.527)">
            <path id="Path-82" data-name="Path" d="M2.751,5.639C2.613,3.851,2.613,2.063,1.719.413A.581.581,0,0,0,.894.138C.688.206.619.413.55.55-.069,2.476.344,4.539.55,6.464a34.218,34.218,0,0,0,.963,5.914A.737.737,0,0,0,2.269,13c.344,0,.619-.413.619-.756A35.186,35.186,0,0,0,2.751,5.639Z" fill="#d0d7de"/>
          </g>
          <g id="_Grupo_81" transform="translate(156.791 94.212)">
            <path id="Path-83" data-name="Path" d="M1.994.825A.6.6,0,0,0,1.307.481.829.829,0,0,0,.963.825,8.11,8.11,0,0,0,.825,5.777a.688.688,0,0,0,.894.413.62.62,0,0,0,.413-.413A8.11,8.11,0,0,0,1.994.825Z" fill="#d0d7de"/>
          </g>
          <g id="_Grupo_82" transform="translate(176.734 72.206)">
            <path id="Path-84" data-name="Path" d="M2.888,9.352c.138-2.682.825-5.639.069-8.252A.7.7,0,0,0,1.719.963C.413,3.438.688,6.6.619,9.352s-.344,5.777.825,8.321c.206.413.688.206.825-.138C3.232,14.991,2.819,12.034,2.888,9.352Z" fill="#d0d7de"/>
          </g>
          <g id="_Grupo_83" transform="translate(195.989 59.828)">
            <path id="Path-85" data-name="Path" d="M3.095,7.7C2.957,5.364,3.163,2.819,2.476.55a.828.828,0,0,0-1.1-.413A.62.62,0,0,0,.963.55C.275,3.026.619,5.708.825,8.252S.894,13,2.063,14.923a.656.656,0,0,0,.825.206.687.687,0,0,0,.275-.344C3.851,12.516,3.232,10.04,3.095,7.7Z" fill="#d0d7de"/>
          </g>
          <g id="_Grupo_84" transform="translate(181.547 44.011)">
            <path id="Path-86" data-name="Path" d="M1.857,1.169C1.65.55.55.344.413,1.169a42.322,42.322,0,0,0-.069,6.6c0,2.2-.344,4.951-.275,7.427-.069.275.138.481.413.55s.481-.138.55-.413C2.544,11.484,3.232,5.158,1.857,1.169Z" fill="#d0d7de"/>
          </g>
          <g id="_Grupo_85" transform="translate(220.057 44.011)">
            <path id="Path-87" data-name="Path" d="M2.476.55A.757.757,0,0,0,1.444.344L1.238.55C.413,2.338.619,4.264.619,6.189a62.172,62.172,0,0,0,.275,7.152,1,1,0,0,0,1.169.688.989.989,0,0,0,.688-.688,62.172,62.172,0,0,0,.275-7.152C3.095,4.264,3.3,2.338,2.476.55Z" fill="#d0d7de"/>
          </g>
          <g id="_Grupo_86" transform="translate(200.115 30.946)">
            <path id="Path-88" data-name="Path" d="M2.269.894A.726.726,0,0,0,1.238.55.829.829,0,0,0,.894.894C.206,2.544.344,4.4.275,6.189a57.884,57.884,0,0,0,.069,5.983c.069.688,1.169.963,1.307.206A51.75,51.75,0,0,0,2.338,6.67C2.407,4.676,2.751,2.751,2.269.894Z" fill="#d0d7de"/>
          </g>
          <g id="_Grupo_87" transform="translate(219.37 14.441)">
            <path id="Path-89" data-name="Path" d="M2.613,8.39c-.069-2.476.344-5.158-.344-7.564A.688.688,0,0,0,1.375.413.62.62,0,0,0,.963.825C0,3.3.344,6.327.55,9.009s.138,5.02,1.307,7.014a.521.521,0,0,0,.688.069c.069-.069.138-.138.138-.206C3.37,13.479,2.682,10.865,2.613,8.39Z" fill="#d0d7de"/>
          </g>
          <g id="_Grupo_88" transform="translate(239.312 238.625)">
            <path id="Path-90" data-name="Path" d="M2.751.619a.619.619,0,0,0-1.238,0C.688,3.095.825,5.845.756,8.39s-.413,5.3.069,7.84a.856.856,0,0,0,1.032.55.746.746,0,0,0,.55-.55c.688-2.544.55-5.226.619-7.84S3.37,3.163,2.751.619Z" fill="#d0d7de"/>
          </g>
          <g id="_Grupo_89" transform="translate(240 264.069)">
            <path id="Path-91" data-name="Path" d="M3.232,7.152c-.206-2.2,0-4.539-.756-6.67A.688.688,0,0,0,1.582.069a.62.62,0,0,0-.413.413C.275,2.682.619,5.3.825,7.633s.206,4.539,1.307,6.327a.733.733,0,0,0,.963.413.875.875,0,0,0,.481-.619C4.057,11.622,3.438,9.284,3.232,7.152Z" fill="#d0d7de"/>
          </g>
          <g id="_Grupo_90" transform="translate(241.375 297.765)">
            <path id="Path-92" data-name="Path" d="M2.476.894a.756.756,0,1,0-1.513,0A40.1,40.1,0,0,0,.894,16.573a.883.883,0,0,0,1.1.619.93.93,0,0,0,.619-.619A41.456,41.456,0,0,0,2.476.894Z" fill="#d0d7de"/>
          </g>
          <g id="_Grupo_91" transform="translate(259.255 277.135)">
            <path id="Path-93" data-name="Path" d="M3.507,10.659c0-2.682.275-5.433-.55-8.046a.949.949,0,0,0-.206-.275A3.46,3.46,0,0,0,1.926.344C1.307-.344.138.55.619,1.307a1.562,1.562,0,0,1,0,1.719A.923.923,0,0,0,.963,4.332l.069.069a32.229,32.229,0,0,0-.206,6.808c.069,2.2-.138,5.226,1.1,7.5a.56.56,0,0,0,.756.138.949.949,0,0,0,.206-.275C3.989,16.16,3.576,13.272,3.507,10.659Z" fill="#d0d7de"/>
          </g>
          <g id="_Grupo_92" transform="translate(260.63 255.817)">
            <path id="Path-94" data-name="Path" d="M2.819,4.745A9.259,9.259,0,0,0,2.063.688.86.86,0,0,0,.894.481.631.631,0,0,0,.619.894,10.457,10.457,0,0,0,.413,5.02a21.38,21.38,0,0,0,.619,4.126c.275.756,1.513.963,1.719,0A18.85,18.85,0,0,0,2.819,4.745Z" fill="#d0d7de"/>
          </g>
          <g id="_Grupo_93" transform="translate(259.943 223.496)">
            <path id="Path-95" data-name="Path" d="M3.645,1.169C3.576.275,2.2-.344,1.719.688a15.9,15.9,0,0,0-1.1,6.189c-.069,1.857-.275,3.989.963,5.5a.871.871,0,0,0,1.238-.069l.138-.138c.894-1.513.481-3.232.481-4.951A56.675,56.675,0,0,0,3.645,1.169Z" fill="#d0d7de"/>
          </g>
          <g id="_Grupo_94" transform="translate(259.255 192.55)">
            <path id="Path-96" data-name="Path" d="M2.476,1.032A.856.856,0,0,0,1.444.481a.746.746,0,0,0-.55.55c-.825,3.3-.138,7.289.481,10.59.206,1.1,1.719.756,1.788-.275C3.438,8.115,3.713,4.126,2.476,1.032Z" fill="#d0d7de"/>
          </g>
          <g id="_Grupo_95" transform="translate(258.567 158.854)">
            <path id="Path-97" data-name="Path" d="M3.095,1.307A1.205,1.205,0,0,0,1.926.138,1.205,1.205,0,0,0,.756,1.307C.55,6.12.344,12.034,1.582,16.711a.828.828,0,0,0,1.1.413.62.62,0,0,0,.413-.413C4.057,11.966,3.507,6.052,3.095,1.307Z" fill="#d0d7de"/>
          </g>
          <g id="_Grupo_96" transform="translate(259.255 127.908)">
            <path id="Path-98" data-name="Path" d="M3.026,1.169c-.138-.825-1.375-.756-1.582,0C.756,3.713.894,6.4.756,9.009S.275,13.96.688,16.229a1.019,1.019,0,0,0,1.307.619c.138-.069.206-.138.344-.206a.722.722,0,0,0,.344-.619v-.206C3.163,11.209,3.851,5.639,3.026,1.169Z" fill="#d0d7de"/>
          </g>
          <g id="_Grupo_97" transform="translate(260.63 102.464)">
            <path id="Path-99" data-name="Path" d="M2.269.756a.8.8,0,0,0-.894-.55A.8.8,0,0,0,.894.55c-1.1,1.994-.825,4.4-.756,6.6a29.767,29.767,0,0,0,1.1,7.358c.069.206.275.413.481.344s.413-.275.344-.481c.275-2.407.275-4.814.413-7.221S2.957,2.751,2.269.756Z" fill="#d0d7de"/>
          </g>
          <g id="_Grupo_98" transform="translate(237.249 144.413)">
            <path id="Path-100" data-name="Path" d="M4.814,1.169A.92.92,0,0,0,3.645.619a.7.7,0,0,0-.413.344C1.719,3.645,1.65,7.083,1.169,10.109s-1.238,4.539.138,6.258a.324.324,0,0,0,.413.069C3.713,15.2,3.645,11.9,3.989,9.7S5.3,3.989,4.814,1.169Z" fill="#d0d7de"/>
          </g>
          <g id="_Grupo_99" transform="translate(242.063 114.842)">
            <path id="Path-101" data-name="Path" d="M2.957,1.238A1.066,1.066,0,0,0,1.513.619a1.094,1.094,0,0,0-.619.619A27,27,0,0,0,.55,7.908c0,2.2-.069,4.951.138,7.427a1.238,1.238,0,1,0,2.476,0c.206-2.476.138-4.951.138-7.427S3.576,3.37,2.957,1.238Z" fill="#d0d7de"/>
          </g>
          <g id="_Grupo_100" transform="translate(242.063 86.648)">
            <path id="Path-102" data-name="Path" d="M2.819.894a.883.883,0,0,0-1.1-.619A.93.93,0,0,0,1.1.894C.413,3.438.619,6.12.688,8.734a42.962,42.962,0,0,0,.55,7.84.828.828,0,0,0,1.1.413.62.62,0,0,0,.413-.413,42.962,42.962,0,0,0,.55-7.84C3.3,6.12,3.576,3.37,2.819.894Z" fill="#d0d7de"/>
          </g>
          <g id="_Grupo_101" transform="translate(242.063 57.077)">
            <path id="Path-103" data-name="Path" d="M3.507,1.238C3.37.206,1.857-.206,1.513.963A39.194,39.194,0,0,0,.481,9.9c-.138,2.957-.894,5.433.481,7.633a.4.4,0,0,0,.481.138l.069-.069c1.513-1.719,1.375-4.195,1.582-6.464S3.92,4.47,3.507,1.238Z" fill="#d0d7de"/>
          </g>
          <g id="_Grupo_102" transform="translate(241.375 29.57)">
            <path id="Path-104" data-name="Path" d="M2.957.619A.884.884,0,0,0,1.719.275a.829.829,0,0,0-.344.344C.344,2.132.688,4.195.688,5.983a35.739,35.739,0,0,0,.344,6.052,1.193,1.193,0,0,0,2.269,0,35.739,35.739,0,0,0,.344-6.052C3.645,4.195,3.989,2.132,2.957.619Z" fill="#d0d7de"/>
          </g>
          <g id="_Grupo_103" transform="translate(243.438 2.751)">
            <path id="Path-105" data-name="Path" d="M2.269,2.682A7.344,7.344,0,0,0,2.063.963V.825C2.132,0,1.1.275.756.688S.55,2.2.55,2.819A25.492,25.492,0,0,0,.619,13.272a.743.743,0,0,0,.963.481.831.831,0,0,0,.481-.481A25.008,25.008,0,0,0,2.269,2.682Z" fill="#d0d7de"/>
          </g>
        </g>
        <g id="_Grupo_104" transform="translate(3.438 384.413)">
          <path id="Path-106" data-name="Path" d="M463.5,41.192c7.84-4.951,14.166-13.066,14.923-22.556a25.085,25.085,0,0,0-3.713-15.2L.55,0l9.628,20.424C38.923,65.4,88.573,92.905,121.513,80.115s34.865,10.659,71.312,10.659,38.648,11.9,139.6-2.269q19.393-2.579,38.923-3.3c2.132-.344,4.195-.688,6.327-.894,6.4-.688,12.791-1.582,19.117-2.269s13.41-1.719,19.943-3.026a104.011,104.011,0,0,0,13.341-5.02l1.788-1.238c2.682-1.994,5.158-4.126,7.633-6.327A69.232,69.232,0,0,1,463.5,41.192Z" fill="#f8fafb"/>
          <path id="Shape" d="M432.413,70.556h2.269l1.926-1.582h-9.421c-41.88-12.309-110.51-30.946-157.822-43.6l95.244-.55c24.894,6.67,57.215,15.4,88.779,24.069l1.444-1.238c-29.57-8.115-59.966-16.3-84.309-22.831l94.35-.756,11.347,3.026.619-1.444L470.785,24h6.671c.138-.55.275-1.032.413-1.582l-12.86.138L424.16,11.691l-.138,1.582,35.072,9.352-94.487.756L320.8,11.759l-.138,1.582L358.693,23.45,263.45,24,217.513,11.759l-.138,1.582L257.467,24l-80.527.206L116.287,8.046l-.138,1.582,54.877,14.441c-43.461,0-83.759-.138-115.049-.481L12.928,12.172l.206,1.65,36.447,9.7c-13.685-.206-25.375-.413-34.59-.756l.481,1.582c10.521.344,24.275.619,40.367.825,46.556,12.447,118.625,31.908,162.7,44.837-35.347.069-69.112,0-98.407-.206C96.619,62.854,63.817,53.708,31.014,44.7l4.195,2.751C64.092,55.358,92.63,63.335,114.5,69.731c-21.181-.138-39.817-.413-54.6-.688l1.582,1.65c15.817.344,35.828.55,58.59.688,18.43,5.433,31.083,9.559,33.49,11.14l.275-1.513c-2.2-1.444-12.653-4.951-28.195-9.559l67.255.138h31.083c18.086,5.364,30.533,9.352,32.871,10.934l.275-1.513c-2.132-1.444-12.516-4.883-27.782-9.49,36.722-.069,74.751-.206,110.854-.413,12.1,3.713,20.149,6.464,21.937,7.633l.275-1.513c-1.582-1.1-7.771-3.232-17.123-6.189l81.765-.55,5.433,1.582,1.513-1.169Zm-208.367-.55C182.372,57.628,110.785,38.235,62.166,25.238c28.126.275,62.648.413,99.92.413H176.94c50.544,13.547,120.138,32.527,158.1,43.943C298.728,69.8,260.63,69.937,224.046,70.006Zm116.218-.413C304.917,58.728,235.255,39.748,182.923,25.65l80.458-.206c45.456,12.172,114.361,30.808,158.372,43.6Z" fill="#e3e9ed"/>
        </g>
        <path id="Path-107" data-name="Path" d="M53.708,417.9c8.8-2.544,10.728-3.026,24.619-2.132,11.072.756,11.072,1.926,10.8,2.888s-1.582,7.221-3.782,7.152c-6.946-.138-12.034,1.444-19.186,1.719C53.777,428.011,44.287,420.585,53.708,417.9Z" fill="#cfd9e0"/>
        <path id="Path-108" data-name="Path" d="M91.668,426.086c-.825-1.994.756-7.5,2.338-8.046s11-.481,10.728,3.851-4.195,4.745-7.5,4.745C95.381,426.7,91.943,426.7,91.668,426.086Z" fill="#cfd9e0"/>
        <path id="Path-109" data-name="Path" d="M101.914,445.616c8.458,2.476,10.315,2.888,23.587,2.063,10.659-.688,10.659-1.857,10.384-2.819s-1.513-6.946-3.576-6.877c-6.67.138-11.484-1.375-18.361-1.65C101.983,435.851,92.905,442.934,101.914,445.616Z" fill="#cfd9e0"/>
        <path id="Path-110" data-name="Path" d="M138.292,437.708c-.756,1.926.688,7.221,2.2,7.7s10.521.413,10.315-3.713-3.989-4.539-7.221-4.607C141.868,437.089,138.567,437.089,138.292,437.708Z" fill="#cfd9e0"/>
        <path id="Path-111" data-name="Path" d="M140.768,418.728c8.8-2.544,10.728-3.026,24.619-2.132,11.072.756,11.072,1.926,10.8,2.888s-1.582,7.221-3.782,7.152c-6.946-.138-12.034,1.444-19.186,1.719C140.768,428.905,131.347,421.479,140.768,418.728Z" fill="#cfd9e0"/>
        <path id="Path-112" data-name="Path" d="M178.659,426.98c-.825-1.994.756-7.5,2.338-8.046s11-.481,10.728,3.851-4.195,4.745-7.5,4.745C182.372,427.6,178.934,427.53,178.659,426.98Z" fill="#cfd9e0"/>
        <path id="Path-113" data-name="Path" d="M353.329,416.046a193.536,193.536,0,0,0-26.819-.825l-5.02-.275a234.955,234.955,0,0,0-25.1-.206c-8.39.344-16.3.825-24.413,1.65-5.777.55-11.553,1.032-16.917,2.957a70.592,70.592,0,0,0-14.1,5.983c-3.026,1.719-7.84,3.989-8.252,7.977s3.851,5.158,7.083,5.708c5.02.825,12.034-.344,16.3,2.682,1.994,1.375,2.613,3.92,4.676,5.364a18.963,18.963,0,0,0,6.327,2.613c5.089,1.307,10.453,1.238,15.679.825s12.034-1.719,18.155-2.2a87.9,87.9,0,0,1,17.536.688c10.384,1.238,21.043,2.819,31.289-.344a28.577,28.577,0,0,0,11.072-6.258c3.163-2.957,7.358-7.633,8.734-11.759C372.585,421.2,360.138,416.8,353.329,416.046Z" fill="#e3e9ed"/>
        <path id="Path-114" data-name="Path" d="M275.14,358.762l-.619,4.883s2.888,11.828,3.163,19.461.894,13.616.688,16.16-5.914,8.39-5.914,8.39,1.788,6.4,3.3,6.4,15.2-8.046,15.2-8.046l1.513-.825a46.369,46.369,0,0,1-.688-9.765c.275-4.745,5.364-28.607,4.539-35.14S275.14,358.762,275.14,358.762Z" fill="#e2ffe2"/>
        <path id="Path-115" data-name="Path" d="M288.825,157.754s-.344,8.183-.482,11.14,48.963-2.888,48.963-2.888l-.481-4.676Z" fill="#abffad"/>
        <path id="Path-116" data-name="Path" d="M274.109,363.92c.206-1.169-10.8-55.083-13-59.278s-9.421-12.034-5.983-24.825,19.049-79.289,26.063-93.318,6.189-18.223,6.189-18.223,3.026-.619,7.633-1.375a164.4,164.4,0,0,1,22.418-2.408c13.547-.343-9.215,90.5-9.215,90.5s-17.88,33.284-19.049,38.235,5.776,12.791,7.5,24.825,1.032,40.711.344,44.493-11.14,3.3-12.791,3.3S274.109,363.92,274.109,363.92Z" fill="#3636cc"/>
        <path id="Path-117" data-name="Path" d="M274.109,363.92c.206-1.169-10.8-55.083-13-59.278s-9.421-12.034-5.983-24.825,19.049-79.289,26.063-93.318,6.189-18.223,6.189-18.223,3.026-.619,7.633-1.375a164.4,164.4,0,0,1,22.418-2.408c13.547-.343-9.215,90.5-9.215,90.5s-17.88,33.284-19.049,38.235,5.776,12.791,7.5,24.825,1.032,40.711.344,44.493-11.14,3.3-12.791,3.3S274.109,363.92,274.109,363.92Z" fill="#2bc48a"/>
        <path id="Path-118" data-name="Path" d="M241.375,433.788c.069,1.513,5.3,5.3,12.791,4.539s20.974-6.258,27.163-7.152,15.266-2.544,16.367-4.332.55-2.407.138-4.4a18.656,18.656,0,0,1-5.089,1.788c-3.3.619-6.808.206-13.616,1.513s-19.736,5.708-19.874,5.776l-13.41-5.226-1.65.756C241.375,428.493,241.307,432.275,241.375,433.788Z" fill="#fff"/>
        <path id="Path-119" data-name="Path" d="M279.129,425.742c6.877-1.307,10.384-.894,13.616-1.513a18.656,18.656,0,0,0,5.089-1.788c-.206-.963-.413-2.063-.619-3.438-.619-4.126-1.444-13.685-4.47-15.473-1.1-1.375-1.857,2.476-3.163,3.3a16.2,16.2,0,0,1-9.421,2.338c.069-2.957.138-5.983-1.238-6.533s-4.264-1.1-5.089,0c0,0-13.96,18.017-17.742,19.461-1.926.756-6.877,2.682-10.109,4.126l13.41,5.226C259.461,431.519,272.321,427.049,279.129,425.742Z" fill="#8080f1"/>
        <path id="Path-120" data-name="Path" d="M254.029,422.854a5.7,5.7,0,0,1,4.057,2.269,19.472,19.472,0,0,1,2.819,5.914s-9.009,2.476-14.235,1.375-4.676-3.026-3.713-4.539S254.029,422.854,254.029,422.854Z" fill="#fff"/>
        <path id="Path-121" data-name="Path" d="M265.032,422.579a.722.722,0,0,1-.619-.344,5.232,5.232,0,0,0-4.195-2.476.688.688,0,1,1,0-1.375,6.6,6.6,0,0,1,5.3,3.163.676.676,0,0,1-.206.963h0Z" fill="#fff"/>
        <path id="Path-122" data-name="Path" d="M268.676,419.691a.731.731,0,0,1-.688-.619,1.438,1.438,0,0,0-.275-.413,7.4,7.4,0,0,0-3.782-2.269.776.776,0,0,1-.756-.206l-.138-.138a.665.665,0,0,1,0-.963.693.693,0,0,1,.619-.206,8.6,8.6,0,0,1,5.02,2.819,2.167,2.167,0,0,1,.619,1.169.683.683,0,0,1-.619.756h0Z" fill="#fff"/>
        <path id="Path-123" data-name="Path" d="M271.84,416.665a.624.624,0,0,1-.481-.206,15.973,15.973,0,0,0-5.914-4.057.766.766,0,0,1-.413-.963.684.684,0,0,1,.963-.344,17.777,17.777,0,0,1,6.4,4.4.665.665,0,0,1,0,.963.677.677,0,0,1-.55.206Z" fill="#fff"/>
        <path id="Path-124" data-name="Path" d="M273.49,413.158a.67.67,0,0,1-.688-.55,2.713,2.713,0,0,0-1.307-1.582,9.15,9.15,0,0,0-3.232-1.444.621.621,0,0,1-.619-.756.65.65,0,0,1,.756-.619.52.52,0,0,1,.275.069,10.145,10.145,0,0,1,3.645,1.582,3.937,3.937,0,0,1,1.926,2.407.7.7,0,0,1-.55.825h0Z" fill="#fff"/>
        <path id="Path-125" data-name="Path" d="M261.181,424.5a.691.691,0,0,1-.138-1.375c2.819-.619,5.158-2.682,7.152-4.539l8.458-7.7a.683.683,0,0,1,1.032.894l-.138.138-8.458,7.7c-2.063,1.857-4.607,4.195-7.908,4.883Z" fill="#4949e7"/>
        <path id="Path-126" data-name="Path" d="M341.089,365.433c0,.825,1.65,29.364,1.513,34.521s-5.983,13.066-5.983,13.066,3.645,5.914,4.607,5.983,11.553-6.946,11.553-6.946-.275-1.719-.481-3.92,8.8-31.014,8.8-42.224S341.089,365.433,341.089,365.433Z" fill="#e2ffe2"/>
        <path id="Path-127" data-name="Path" d="M295.289,218.063c4.126,13.479,24.756,68.768,28.264,74.544s2.132,14.1,3.989,17.948,6.946,13.616,7.84,20.905,5.639,33.7,5.3,35.691,13.272,2.682,20.562.688c1.513-12.928,4.814-32.734,3.163-42.017s-8.458-15.954-10.109-22.281-1.169-66.774.344-76.057,3.92-11.278,3.37-20.424-7.633-24.344-13.135-33.352c-2.338-3.851-7.5-7.84-7.5-7.84a135.93,135.93,0,0,0-22.418-1.444c-5.02,0-20.011,2.338-20.011,2.338S288.069,194.407,295.289,218.063Z" fill="#4ad295"/>
        <path id="Path-128" data-name="Path" d="M327.954,183.335a30.072,30.072,0,0,1-7.427-.894c-3.232-.825-5.3-2.063-6.464-3.851a11.009,11.009,0,0,1-1.307-3.232,26.781,26.781,0,0,1-.825-3.37,7.655,7.655,0,0,1-.138-1.169,7.659,7.659,0,0,0-.138-1.169,22.2,22.2,0,0,0-.963-3.507.677.677,0,1,1,1.238-.55c0,.069,0,.069.069.138a21.868,21.868,0,0,1,.963,3.645l.206,1.238c.069.413.069.756.138,1.1a23.711,23.711,0,0,0,.825,3.163A11.124,11.124,0,0,0,315.3,177.7c1.031,1.513,2.819,2.544,5.639,3.3a29.611,29.611,0,0,0,14.51-.069.748.748,0,0,1,.756.619.756.756,0,0,1-.413.688A29.968,29.968,0,0,1,327.954,183.335Z" fill="#00af80"/>
        <path id="Path-129" data-name="Path" d="M326.1,182.648h0a.65.65,0,0,1-.688-.688v-.825a20.249,20.249,0,0,0-.275-5.845,17.067,17.067,0,0,0-1.375-3.026c-3.507.138-7.014.344-10.521.688a.691.691,0,0,1-.138-1.375h0c3.645-.344,7.358-.55,11-.688a.722.722,0,0,1,.619.344,17.665,17.665,0,0,1,1.719,3.645,20.915,20.915,0,0,1,.344,6.258v.825A.65.65,0,0,1,326.1,182.648Z" fill="#00af80"/>
        <path id="Path-130" data-name="Path" d="M314.613,175.908a.691.691,0,1,1-.138-1.375l2.338-.413a.691.691,0,0,1,.138,1.375l-2.132.344Z" fill="#00af80"/>
        <path id="Path-131" data-name="Path" d="M319.083,175.564a.621.621,0,0,1-.756-.619c0-.413.206-.756.619-.756l1.994-.413a.691.691,0,1,1,.138,1.375h0l-1.719.344Z" fill="#00af80"/>
        <path id="Path-132" data-name="Path" d="M323.415,175.221a.689.689,0,1,1-.069-1.375h1.032a.691.691,0,1,1,.138,1.375h-1.1Z" fill="#00af80"/>
        <path id="Path-133" data-name="Path" d="M357.456,368.39h0c-.413-.069-.756-.344-.688-.756h0c3.37-28.195-3.37-50.751-9.834-72.619-4.607-15.473-8.94-30.052-9.352-45.524-.206-7.358.138-14.785.413-22.006s.55-12.928.481-19.393c-.206-16.711-2.682-29.364-7.977-39.954a.724.724,0,0,1,.275-.894.85.85,0,0,1,.963.275c5.364,10.8,7.977,23.656,8.115,40.573.069,6.533-.206,13.135-.481,19.461s-.619,14.648-.413,21.937c.413,15.266,4.676,29.777,9.284,45.112,6.533,22.006,13.341,44.7,9.9,73.169A.731.731,0,0,1,357.456,368.39Z" fill="#00af80"/>
        <path id="Path-134" data-name="Path" d="M337.032,411.163s1.788-3.232,5.3-2.338,4.195,5.02,5.364,4.745,4.951-1.582,4.814-3.507l-.206-1.926s1.719-.413,1.788,1.719.344,8.252.619,10.246.688,2.338-1.926,4.951-2.544,3.851-3.438,5.5-5.02,11.347-9.628,14.716c-3.3,2.476-7.977,2.751-13.822,1.719s-8.734,1.307-8.115-5.226,1.169-6.739,3.782-10.178S335.244,415.083,337.032,411.163Z" fill="#8080f1"/>
        <path id="Path-135" data-name="Path" d="M319.908,433.926a15.234,15.234,0,0,1,7.84-.619c3.989.825,8.321,5.158,9.352,7.84,3.576-1.513,6.533-4.126,9.628-8.6s3.851-6.464,5.983-8.39,2.407-3.3,2.407-3.3.688,2.476-1.1,3.713a13.9,13.9,0,0,0-3.645,3.851c-.825,1.238-4.745,14.716-8.94,17.467s-11.278,4.883-17.192,3.713c-7.358-1.513-9.971-4.264-7.7-11.966C318.052,433.926,319.908,433.926,319.908,433.926Z" fill="#fff"/>
        <path id="Path-136" data-name="Path" d="M340.057,433.719l-.344-.138a.676.676,0,0,1-.206-.963h0a15.347,15.347,0,0,0,1.719-5.089c.413-1.857.413-1.926.688-2.888l.481-1.444c.206-.619.481-1.238.619-1.857l.206-.963a11.968,11.968,0,0,1,1.65-4.264l1.375-2.476a.7.7,0,1,1,1.307.481c0,.069-.069.138-.138.206L346.04,416.8a11,11,0,0,0-1.513,3.851l-.206,1.032a16.98,16.98,0,0,1-.688,1.994l-.481,1.375c-.275.894-.481,1.857-.688,2.751a19.862,19.862,0,0,1-1.925,5.57C340.47,433.582,340.264,433.65,340.057,433.719Z" fill="#4949e7"/>
        <path id="Path-137" data-name="Path" d="M343.083,420.447h-.275l-2.476-1.307-.413-.206a6.472,6.472,0,0,0-1.513-.825,7.486,7.486,0,0,0-5.5.413.7.7,0,1,1-.481-1.307,9.138,9.138,0,0,1,6.533-.413,13.51,13.51,0,0,1,1.719.894l.413.206,2.338,1.238a.682.682,0,0,1,.344.894.69.69,0,0,1-.688.413Z" fill="#fff"/>
        <path id="Path-138" data-name="Path" d="M342.258,423.954h-.138a4.518,4.518,0,0,1-1.994-1.169l-.481-.413a8.627,8.627,0,0,0-4.264-1.513,12.646,12.646,0,0,0-4.814.481.7.7,0,0,1-.825-.55.593.593,0,0,1,.413-.756,14.152,14.152,0,0,1,5.364-.55,9.825,9.825,0,0,1,4.951,1.788l.55.413a3.927,3.927,0,0,0,1.444.894.65.65,0,0,1,.619.756.679.679,0,0,1-.825.619Z" fill="#fff"/>
        <path id="Path-139" data-name="Path" d="M340.814,428.355a.624.624,0,0,1-.481-.206l-.619-.756-.344-.481a5.63,5.63,0,0,0-1.857-1.513,11.119,11.119,0,0,0-5.777-.688c-1.857.138-3.232.344-4.332,1.375a.748.748,0,0,1-1.032,0,.692.692,0,0,1,.069-1.032,8.46,8.46,0,0,1,5.158-1.719c1.857-.138,4.539-.206,6.533.825a6.791,6.791,0,0,1,2.269,1.926l.344.55.481.688a.668.668,0,0,1-.069.963Z" fill="#fff"/>
        <path id="Path-140" data-name="Path" d="M340.126,431.381a.624.624,0,0,1-.481-.206c-1.65-1.582-4.057-2.2-6.6-2.751s-5.3-1.1-7.633-.275a.677.677,0,1,1-.55-1.238c.069,0,.069,0,.138-.069,2.682-.894,5.5-.413,8.39.206s5.3,1.307,7.221,3.095a.665.665,0,0,1,0,.963.624.624,0,0,1-.481.206Z" fill="#fff"/>
        <path id="Path-141" data-name="Path" d="M300.791,171.576l-1.375,2.407-8.252,1.238.344-4.814L295.5,169.1l5.777-.275Z" fill="#4ad295"/>
        <path id="Path-142" data-name="Path" d="M291.507,170.613a.689.689,0,0,1-.688-.688.661.661,0,0,1,.413-.619,23.78,23.78,0,0,1,8.183-1.65.688.688,0,1,1,0,1.375,22.981,22.981,0,0,0-7.7,1.582Z" fill="#00af80"/>
        <path id="Path-143" data-name="Path" d="M290.888,176.39a.883.883,0,0,1-.688-.275,1.162,1.162,0,0,1-.206-.688,31.081,31.081,0,0,1,.894-5.639.682.682,0,0,1,.894-.344.756.756,0,0,1,.413.688,28.579,28.579,0,0,0-.825,4.745,45.46,45.46,0,0,1,8.6-1.238.635.635,0,0,1,.688.619.748.748,0,0,1-.619.756,43.948,43.948,0,0,0-8.94,1.375Z" fill="#00af80"/>
        <path id="Shape-2" data-name="Shape" d="M293.983,173.914a2.26,2.26,0,0,1-1.169-.275,1.225,1.225,0,0,1-.688-1.1,2.2,2.2,0,0,1,2.2-2.338h.619l.344.138h.138l.275.275a1.892,1.892,0,0,1,.55,1.032,1.706,1.706,0,0,1-1.169,1.994A2.883,2.883,0,0,1,293.983,173.914ZM293.5,172.4a1.341,1.341,0,0,0,1.032,0,.7.7,0,0,0,.413-.344.624.624,0,0,0-.206-.481.9.9,0,0,0-1.1.55c0,.069-.069.138-.069.275Z" fill="#00af80"/>
        <path id="Path-144" data-name="Path" d="M317.02,76.332c-.825.206-1.719,0-2.2.481,3.576-.138,7.221-1.169,9.628-3.3.481-.481.275,12.309-2.2,12.653-1.169.206,1.994,6.189,4.951,5.57a18.2,18.2,0,0,0,12.447-9.352s-4.332-3.645-5.158-6.67c-1.238-4.676-.756-10.04.688-15.06v-.206S324.722,74.476,317.02,76.332Z" fill="#abffad"/>
        <path id="Path-145" data-name="Path" d="M354.017,16.848a7.654,7.654,0,0,0-.138-3.3,3.493,3.493,0,0,0-.206-1.169V11.9a5.664,5.664,0,0,0-1.238-4.4,6.4,6.4,0,0,0-3.782-6.327c-3.095-1.375-7.84-.825-10.8.756a9.279,9.279,0,0,0-2.407,1.926s2.957,5.226,3.989,5.708,5.433,2.682,6.258,4.607a13.229,13.229,0,0,1,.963,4.264l2.132,1.1,2.544.275.688.138-.138-.138A4.488,4.488,0,0,0,354.017,16.848Z" fill="#4949e7"/>
        <path id="Path-146" data-name="Path" d="M348.86,19.6l-2.132-1.1a13.229,13.229,0,0,0-.963-4.264c-.894-1.994-5.3-4.126-6.258-4.607s-3.989-5.708-3.989-5.708a12.408,12.408,0,0,0-5.708-2.407,6.9,6.9,0,0,0-4.195.963l-1.994-.756A27.427,27.427,0,0,0,311.175.206l-1.994.413a20.413,20.413,0,0,0-7.358,3.645,16.634,16.634,0,0,0-2.2,2.2l-1.375,1.169a16.857,16.857,0,0,0-6.052,1.375c-5.777,2.613-8.734,8.8-9.146,14.854-.275,4.057.963,7.771-.275,11.759s-3.095,7.7-3.782,11.9c-1.238,7.633,2.407,13.272,7.358,18.842,1.1,1.307,2.957,1.169,1.65-1.375a9.072,9.072,0,0,1,.206-8.6,14.142,14.142,0,0,0,2.132,5.5c.894,1.375,1.788.55,1.513-1.032-.481-2.682,1.238-5.158,2.751-7.427a1.376,1.376,0,0,0-.55-1.925c-.069-.069-.138-.069-.275-.138-.756-.138,3.576-1.788,2.957-2.2s1.238-1.444,2.819-2.613-5.433-1.719-4.126-2.476a34.721,34.721,0,0,0,7.633-5.364,32.691,32.691,0,0,0,5.364-7.289c1.513-2.613,2.888-6.808,5.158-8.8s2.476-.688,4.057,0l.756.206c2.544,1.65,4.47,3.851,6.671,6.052s3.782,3.851,6.464,4.539,3.026,4.951,4.951,5.158,2.613-.344,3.713-.481a8.077,8.077,0,0,0,3.713-1.994l.275.275c-3.026,5.777-7.908,17.261-8.183,17.261s-.756,1.513-.275,2.476l.206.275-.206.206a16.252,16.252,0,0,0-3.163.138,1.057,1.057,0,0,0-.825,1.169l-.138.138a.872.872,0,0,0,0,1.238L330.5,59a.444.444,0,0,0-.413.413.378.378,0,0,0,.206.344c2.132.825,4.607,1.169,6.533,2.544a4.965,4.965,0,0,1,1.925,3.163,5.076,5.076,0,0,1-.55,2.819c-.069.138,0,.55.413.275,3.095-2.2,1.307-6.052-1.1-8.734a26.435,26.435,0,0,1,4.607,1.1c4.47,1.582,6.189,9.352.894,11.347-.138.069-.206.138-.138.275s.138.206.275.138h0c4.676-.756,5.57-6.12,4.057-9.971a8.919,8.919,0,0,0-4.745-4.47,16.945,16.945,0,0,0,2.338-1.513,17.671,17.671,0,0,0,4.47-5.089l.481-.688c3.095-3.438,2.613-10.315,4.4-14.1a13.89,13.89,0,0,0,.963-9.559,18.747,18.747,0,0,0-3.026-7.152l-.688-.138Z" fill="#5f5ff6"/>
        <path id="Path-147" data-name="Path" d="M296.183,44.768c-1.375,1.788-2.888,3.507-4.126,5.158a28.25,28.25,0,0,0-3.782,6.739,14.025,14.025,0,0,0,2.063,5.158c.894,1.375,1.788.55,1.513-1.032-.481-2.682,1.238-5.158,2.751-7.427a1.376,1.376,0,0,0-.55-1.925c-.069-.069-.138-.069-.275-.138-.756-.138,3.576-1.788,2.957-2.2s1.238-1.444,2.819-2.613S297.7,45.249,296.183,44.768Z" fill="#4949e7"/>
        <path id="Path-148" data-name="Path" d="M348.378,38.785a3.361,3.361,0,0,0-1.238-.963c-2.063-1.1-3.576-.481-5.914-.619s-4.195-3.851-6.258-5.5-4.539-2.132-6.533-3.851a35.219,35.219,0,0,0-9.352-6.052l-1.444-.619a6.207,6.207,0,0,0-2.751-.344,8.069,8.069,0,0,0-3.851,1.857,65.429,65.429,0,0,0-9.284,8.115c-2.751,2.888-5.639,6.12-7.289,9.7a20.884,20.884,0,0,0-1.582,12.1c.756,4.814,2.132,10.178,5.02,14.166a23.314,23.314,0,0,0,11.278,8.871,18.238,18.238,0,0,0,6.4.894,6.4,6.4,0,0,0,2.269-.481c7.564-1.857,17.6-15.61,17.6-15.61s-.275.138-.206.206a35.026,35.026,0,0,1,3.438-8.871,7,7,0,0,0,6.946-.756,10.056,10.056,0,0,0,3.851-6.12A7.376,7.376,0,0,0,348.378,38.785Z" fill="#e2ffe2"/>
        <path id="Path-149" data-name="Path" d="M319.289,53.364c-6.6,0-8.458-5.777-9.146-8.046a.7.7,0,0,1,.55-.825.593.593,0,0,1,.756.413c1.238,3.989,3.438,7.908,9.7,6.946s5.639-10.178,5.57-10.59a.681.681,0,0,1,.55-.756l13.066-3.095a.748.748,0,0,1,.756.619.756.756,0,0,1-.413.688l-12.447,2.957c.413,3.851-.55,10.521-6.808,11.484Z" fill="#2d2db0"/>
        <path id="Path-150" data-name="Path" d="M315.163,22.625c-1.1.688-4.126,5.57-4.951,7.633s-8.252,11.484-10.659,13.891a43.641,43.641,0,0,1-6.946,5.089s0-.963.069-2.063a19.913,19.913,0,0,1,.413-2.819c.275-.963,11.484-11.828,11.484-11.828l6.6-7.7,3.095-4.539,2.269.481.413.963A6.227,6.227,0,0,0,315.163,22.625Z" fill="#abffad"/>
        <path id="Path-151" data-name="Path" d="M345.284,31.152c-.688-1.375-2.476-1.926-3.782-2.544l-5.02-2.338a2.154,2.154,0,0,0-2.2.413,52.548,52.548,0,0,1-5.5-1.994h-.138l-.206-.138c-2.682-1.582-5.57-3.989-8.734-4.195a.444.444,0,0,0-.413.413h0l-.894-.344h-.206a3.294,3.294,0,0,0-3.782-2.2c-1.65.275-3.026,1.719-4.126,3.37a.413.413,0,0,0-.275-.069c-4.264,2.132-7.221,6.189-10.728,9.352s-8.8,6.4-13.547,9.146c-1.169.688-1.1,2.888.413,3.163h1.582l-.481.344c-1.238.963.138,2.751,1.444,2.476,5.639-1.238,11.278-6.258,15.2-10.315a51.536,51.536,0,0,0,5.914-7.5c.963-1.513,1.925-3.026,2.819-4.539.275-.55.619-1.1.963-1.65,1.238-1.582,2.613-1.169,3.989.138a.459.459,0,0,0,.688,0,.525.525,0,0,0,.138-.344v-.206c3.37,2.613,6.327,5.3,10.246,7.221a29.06,29.06,0,0,0,3.989,1.719h-3.713c-.413,0,5.364,9.628,9.352,9.834,2.544.138,3.163-1.307,4.126-2.063a4.507,4.507,0,0,1,2.888-1.032c.619,0,1.032-3.026,1.1-3.851A2.471,2.471,0,0,0,345.284,31.152Z" fill="#5f5ff6"/>
        <path id="Path-152" data-name="Path" d="M355.186,27.163a18.746,18.746,0,0,0-3.026-7.152l-.688-.138-2.544-.275L346.8,18.5a13.23,13.23,0,0,0-.963-4.264c-.55-1.169-2.338-2.476-3.989-3.37a22.5,22.5,0,0,1,1.169,3.645,18.99,18.99,0,0,1,.619,5.57c-.206,2.063-1.307,3.026-2.544,4.47s-1.238,1.375-1.1,2.613a31.112,31.112,0,0,1,.344,3.37,4.288,4.288,0,0,1-3.438,4.332c-2.476.55-4.539-1.1-6.464-2.407l-.825-.55c1.65,2.751,5.639,8.252,8.665,8.39s3.163-1.307,4.126-2.063a4.588,4.588,0,0,1,2.613-1.032,5.159,5.159,0,0,1,2.063.619,3.361,3.361,0,0,1,1.238.963c1.375,1.582,1.582,4.126,1.1,6.189a10.056,10.056,0,0,1-3.851,6.12,7,7,0,0,1-6.946.756,35.55,35.55,0,0,0-3.438,8.8l.206-.138-.413.55a8.073,8.073,0,0,1,1.857,1.032,4.965,4.965,0,0,1,1.925,3.163,5.076,5.076,0,0,1-.55,2.819c-.069.138,0,.55.413.275,3.095-2.2,1.307-6.052-1.1-8.734a26.435,26.435,0,0,1,4.607,1.1c4.47,1.582,6.189,9.352.894,11.347-.138.069-.206.138-.138.275s.138.206.275.138h0c4.676-.756,5.57-6.12,4.057-9.971a8.919,8.919,0,0,0-4.745-4.47,16.945,16.945,0,0,0,2.338-1.513,17.671,17.671,0,0,0,4.47-5.089l.481-.688c3.095-3.438,2.613-10.315,4.4-14.1A13.759,13.759,0,0,0,355.186,27.163Z" fill="#4949e7"/>
        <path id="Path-153" data-name="Path" d="M303.817,60.585a3.115,3.115,0,0,1-1.1-.206,3.258,3.258,0,0,1-1.788-1.788,2.455,2.455,0,0,1,.481-2.544l.825-.688.688-.619a3.9,3.9,0,0,0,.825-1.582.631.631,0,0,1,.894-.344.741.741,0,0,1,.413.756,5.985,5.985,0,0,1-1.1,2.063,3.619,3.619,0,0,1-.963.825l-.619.55a1.077,1.077,0,0,0-.206,1.1A1.9,1.9,0,0,0,303.2,59.14a1.708,1.708,0,0,0,1.169,0,.7.7,0,0,1,.756,1.169.253.253,0,0,1-.206.069A3.115,3.115,0,0,1,303.817,60.585Z" fill="#4ad295"/>
        <path id="Path-154" data-name="Path" d="M311.244,65.6a.806.806,0,0,1-.619-.756c0-.206.206-.413.413-.55a2.72,2.72,0,0,0,1.031-.688l.413-.344a6.9,6.9,0,0,1,4.745-1.375.691.691,0,1,1-.138,1.375,5.353,5.353,0,0,0-3.782,1.1l-.413.344a4.1,4.1,0,0,1-1.444.963Z" fill="#00af80"/>
        <path id="Path-155" data-name="Path" d="M341.226,48.756A1.3,1.3,0,0,1,339.989,48a.724.724,0,0,1,.275-.894.85.85,0,0,1,.963.275l.413-.138.55-.344a.253.253,0,0,0,.069-.206l-.413-.344a2.078,2.078,0,0,1-.963-1.307,1.791,1.791,0,0,1,.275-1.032,5.22,5.22,0,0,1,5.57-2.544.7.7,0,0,1-.275,1.375A3.886,3.886,0,0,0,342.4,44.7v.206l.413.275a2.178,2.178,0,0,1,.963,1.1,1.552,1.552,0,0,1-.413,1.513,3.1,3.1,0,0,1-.963.688,2.239,2.239,0,0,1-.963.275Z" fill="#4ad295"/>
        <path id="Path-156" data-name="Path" d="M319.083,21.868h-.275a.715.715,0,0,1-.413-.894h0a13.289,13.289,0,0,1,7.5-6.877,40.188,40.188,0,0,1,7.977-2.132l1.719-.344a7.379,7.379,0,0,0,2.613-.894.7.7,0,0,1,.756,1.169h0a8.351,8.351,0,0,1-3.095,1.1l-1.719.344a37.483,37.483,0,0,0-7.7,2.063c-1.926.825-5.364,2.682-6.739,6.12A.722.722,0,0,1,319.083,21.868Z" fill="#4949e7"/>
        <path id="Path-157" data-name="Path" d="M313.375,35H313.1a.715.715,0,0,1-.413-.894h0a6.022,6.022,0,0,1,4.607-3.576,12.238,12.238,0,0,1,5.3.688.631.631,0,0,1,.344.894.741.741,0,0,1-.756.413,12.082,12.082,0,0,0-4.676-.688,4.621,4.621,0,0,0-3.576,2.751A.6.6,0,0,1,313.375,35Z" fill="#4949e7"/>
        <path id="Path-158" data-name="Path" d="M303.129,41.811h-.069a.731.731,0,0,1-.619-.55,6.009,6.009,0,0,0-3.507-1.513.691.691,0,0,1,.138-1.375A7.35,7.35,0,0,1,303.4,40.3a1.249,1.249,0,0,1,.413.963A.67.67,0,0,1,303.129,41.811Z" fill="#4949e7"/>
        <path id="Path-159" data-name="Path" d="M323.347,22.281a.748.748,0,0,1-.756-.619.756.756,0,0,1,.413-.688c1.788-1.032,3.851-1.032,5.845-1.032h.413a64.479,64.479,0,0,0,8.871-.825,6.671,6.671,0,0,0,2.269-.688,8.146,8.146,0,0,0,2.063-1.994,7.943,7.943,0,0,1,2.751-2.476.7.7,0,0,1,.756,1.169.253.253,0,0,1-.206.069,7.217,7.217,0,0,0-2.269,2.063A8.889,8.889,0,0,1,341.02,19.6a9.759,9.759,0,0,1-2.751.825,56.323,56.323,0,0,1-9.009.894h-.413a10.632,10.632,0,0,0-5.158.894Z" fill="#4949e7"/>
        <path id="Path-160" data-name="Path" d="M330.155,27.782l-2.2-.138a.737.737,0,0,1-.619-.756c0-.344.413-.619.756-.619h0c4.539.688,9.559-1.1,13.822-4.883a10.205,10.205,0,0,0,2.407-2.751,5.322,5.322,0,0,0,.688-3.232.621.621,0,0,1,.619-.756c.413,0,.756.206.756.619a6.412,6.412,0,0,1-.894,4.195,12.786,12.786,0,0,1-2.682,3.095A19.384,19.384,0,0,1,330.155,27.782Z" fill="#4949e7"/>
        <path id="Path-161" data-name="Path" d="M334.831,29.089a.691.691,0,1,1-.138-1.375,20.111,20.111,0,0,0,5.158-2.2c1.65-.894,3.713-2.063,4.676-3.851a7.886,7.886,0,0,0,.756-2.132l.206-.825c.344-1.1.688-2.338.206-3.095a.715.715,0,0,1,.413-.894.651.651,0,0,1,.756.206c.756,1.307.275,2.819-.069,4.195l-.206.756a9.636,9.636,0,0,1-.894,2.476c-1.169,2.132-3.438,3.37-5.226,4.4a20.4,20.4,0,0,1-5.5,2.338Z" fill="#3636cc"/>
        <path id="Path-162" data-name="Path" d="M342.464,34.178a.689.689,0,0,1-.688-.688.624.624,0,0,1,.206-.481,26.5,26.5,0,0,0,4.951-6.12,8.711,8.711,0,0,0,.619-7.221c-.206-.481-.619-1.1-1.032-1.032a.635.635,0,0,1-.688-.619.748.748,0,0,1,.619-.756,2.708,2.708,0,0,1,2.407,1.857,9.883,9.883,0,0,1-.688,8.39c-1.513,2.888-3.3,4.47-5.158,6.464A.781.781,0,0,1,342.464,34.178Z" fill="#3636cc"/>
        <path id="Path-163" data-name="Path" d="M350.166,20.493a4.089,4.089,0,0,1-2.751-1.1.736.736,0,0,1-.069-.963.825.825,0,0,1,1.032-.069h0a2.574,2.574,0,0,0,3.576,0,2.751,2.751,0,0,0,.688-1.238.682.682,0,0,1,.894-.344.756.756,0,0,1,.413.688,4.061,4.061,0,0,1-2.682,2.888Z" fill="#3636cc"/>
        <path id="Path-164" data-name="Path" d="M348.034,18.98h-.963a.737.737,0,0,1-.619-.756c0-.344.413-.619.756-.619a5.084,5.084,0,0,0,3.713-.825,2.331,2.331,0,0,0,.963-1.032,4.024,4.024,0,0,0,.138-.894l.138-2.063a.654.654,0,1,1,1.307.069l-.138,2.063a4.318,4.318,0,0,1-.206,1.307,3.5,3.5,0,0,1-1.444,1.719A6.629,6.629,0,0,1,348.034,18.98Z" fill="#3636cc"/>
        <path id="Path-165" data-name="Path" d="M338.476,8.458a.731.731,0,0,1-.688-.619c-.069-.963.619-1.788,1.926-2.269a13.2,13.2,0,0,1,11.966,1.307.7.7,0,0,1-.756,1.169,11.951,11.951,0,0,0-10.659-1.169c-.55.206-1.032.55-1.032.894a.683.683,0,0,1-.619.756h0Z" fill="#3636cc"/>
        <path id="Path-166" data-name="Path" d="M341.914,11.278h0a.65.65,0,0,1-.688-.688c0-1.169.963-2.2,2.544-2.888a13.294,13.294,0,0,1,8.321-.688.682.682,0,0,1,.344.894.756.756,0,0,1-.688.413,11.959,11.959,0,0,0-7.427.619c-.481.206-1.719.825-1.719,1.65a.65.65,0,0,1-.688.688Z" fill="#3636cc"/>
        <path id="Path-167" data-name="Path" d="M331.943,8.39h0a5.456,5.456,0,0,1-3.095-.756,5.63,5.63,0,0,1-1.513-1.857,6.816,6.816,0,0,0-1.994-2.407,3.13,3.13,0,0,0-1.307-.55.665.665,0,0,1-.55-.825.665.665,0,0,1,.825-.55A5.835,5.835,0,0,1,326.1,2.2a8.427,8.427,0,0,1,2.338,2.819A4.707,4.707,0,0,0,329.6,6.464a4.283,4.283,0,0,0,2.407.55.65.65,0,0,1,.688.688.65.65,0,0,1-.688.688Z" fill="#4949e7"/>
        <path id="Path-168" data-name="Path" d="M316.951,19.255a.625.625,0,0,1-.55-.275l-.963-1.375c-1.994-2.888-4.47-6.533-7.427-7.908s-8.527-1.444-11.828-.413a.7.7,0,0,1-.825-.55.593.593,0,0,1,.413-.756c4.332-1.375,9.421-1.169,12.86.481s5.845,5.364,7.908,8.39l.963,1.375a.74.74,0,0,1-.138.963h0Z" fill="#4949e7"/>
        <path id="Path-169" data-name="Path" d="M301.822,29.914a.688.688,0,0,1-.344-1.238,24.821,24.821,0,0,0,7.083-7.083l.275-.481a8.59,8.59,0,0,1,2.544-2.888,5.217,5.217,0,0,1,5.02-.344,3.7,3.7,0,0,1,2.338,2.682.621.621,0,0,1-.619.756c-.413,0-.756-.206-.756-.619h0a2.323,2.323,0,0,0-1.513-1.582,3.952,3.952,0,0,0-3.713.206,8.168,8.168,0,0,0-2.132,2.476l-.275.481a25.95,25.95,0,0,1-7.5,7.5Z" fill="#4949e7"/>
        <path id="Path-170" data-name="Path" d="M287.656,67.186l-.481-.206a13.052,13.052,0,0,1-3.989-7.221,15.129,15.129,0,0,1,.825-8.183c1.238-3.3,4.057-7.083,8.39-7.84a.621.621,0,0,1,.756.619c0,.413-.206.756-.619.756-3.782.688-6.258,4.057-7.358,6.946a13.676,13.676,0,0,0-.688,7.427,11.884,11.884,0,0,0,3.576,6.464.665.665,0,0,1,0,.963.631.631,0,0,1-.413.275Z" fill="#4949e7"/>
        <path id="Path-171" data-name="Path" d="M286.281,37.2a.689.689,0,0,1-.688-.688.624.624,0,0,1,.206-.481c3.026-3.095,5.5-7.083,7.771-12.585l.138-.275a16.392,16.392,0,0,1,1.582-3.095,10.751,10.751,0,0,1,3.92-3.095,22.6,22.6,0,0,1,13.41-2.269c1.719.275,3.645,2.132,4.47,3.232a.688.688,0,0,1-1.1.825h0c-.963-1.169-2.544-2.544-3.645-2.682a20.807,20.807,0,0,0-12.516,2.132,9.348,9.348,0,0,0-3.438,2.682,12.162,12.162,0,0,0-1.444,2.819l-.138.275a39.409,39.409,0,0,1-8.115,13.066A.977.977,0,0,1,286.281,37.2Z" fill="#4949e7"/>
        <path id="Path-172" data-name="Path" d="M305.054,46.625h-.206a.994.994,0,0,1-.688-.481,8.035,8.035,0,0,0-6.052-3.163,10.505,10.505,0,0,0-7.221,2.338,1.026,1.026,0,0,1-1.582-1.307l.206-.206a12.359,12.359,0,0,1,8.8-2.957,10.181,10.181,0,0,1,7.014,3.37,6.046,6.046,0,0,1,2.476-.688,9.232,9.232,0,0,1,2.407.275c.756-1.925,2.888-6.052,7.84-6.464a17.776,17.776,0,0,1,8.458,1.238l1.169.413h0a1.068,1.068,0,0,1,1.169.894h0a1.068,1.068,0,0,1-.894,1.169h0a4.89,4.89,0,0,1-2.2-.481,15.012,15.012,0,0,0-7.564-1.169c-4.883.481-6.327,5.708-6.4,5.983a1.025,1.025,0,0,1-1.238.756c-.069,0-.069,0-.138-.069a7.95,7.95,0,0,0-2.544-.481,5.32,5.32,0,0,0-2.269.825Z" fill="#2d2db0"/>
        <path id="Path-173" data-name="Path" d="M297.49,55.564c-5.5,0-7.083-6.464-7.221-9.971a.688.688,0,1,1,1.375,0c0,.069.275,8.734,5.983,8.6s6.739-8.252,6.739-8.6a.688.688,0,0,1,1.375,0c-.138,3.645-2.063,9.765-8.046,9.9Z" fill="#2d2db0"/>
        <circle id="Oval" cx="1" cy="1" r="1" transform="translate(319.183 53.739)" fill="#4ad295"/>
        <circle id="Oval-2" data-name="Oval" cx="1" cy="1" r="1" transform="translate(327.642 50.782)" fill="#abffad"/>
        <circle id="Oval-3" data-name="Oval" cx="1" cy="1" r="1" transform="translate(324.891 54.289)" fill="#abffad"/>
        <circle id="Oval-4" data-name="Oval" cx="1" cy="1" r="1" transform="translate(306.943 50.232)" fill="#abffad"/>
        <circle id="Oval-5" data-name="Oval" cx="1" cy="1" r="1" transform="translate(309.762 52.226)" fill="#4ad295"/>
        <circle id="Oval-6" data-name="Oval" cx="1" cy="1" r="1" transform="translate(294.702 56.077)" fill="#abffad"/>
        <circle id="Oval-7" data-name="Oval" cx="1" cy="1" r="1" transform="translate(296.421 58.828)" fill="#abffad"/>
        <circle id="Oval-8" data-name="Oval" cx="1" cy="1" r="1" transform="translate(298.14 55.802)" fill="#abffad"/>
        <circle id="Oval-9" data-name="Oval" cx="1" cy="1" r="1" transform="translate(306.53 52.983)" fill="#abffad"/>
        <circle id="Oval-10" data-name="Oval" cx="1" cy="1" r="1" transform="translate(331.011 46.931)" fill="#abffad"/>
        <path id="Path-174" data-name="Path" d="M330.086,54.464a.624.624,0,0,1-.481-.206.781.781,0,0,1-.206-.55.682.682,0,0,1,.344-.894.814.814,0,0,1,.688.069h0a.713.713,0,0,1,.55.825h0a.969.969,0,0,1-.688.756Z" fill="#4ad295"/>
        <path id="Path-175" data-name="Path" d="M369.284,90.361c-2.2-3.989-4.883-5.777-9.352-6.4-2.407-.344-6.739-.206-10.8-.55s-9.421-1.032-9.421-1.032a24.956,24.956,0,0,1-3.438,4.607c-2.957,2.407-9.215,4.745-18.292,5.158-3.438.138-5.158,2.613-8.6,2.682a13.245,13.245,0,0,0,2.338-6.739,2.162,2.162,0,0,1,.344-1.444,2.324,2.324,0,0,1,1.307-.619,8.859,8.859,0,0,0,4.676-2.957c-.344.413-3.3.275-3.92.275l-4.126.413c-2.751.275-4.126,1.238-6.808,1.788-5.226,1.032-11.622.825-16.229,3.576a15.163,15.163,0,0,0-2.682,3.163c-.619.825-1.307,1.926-1.994,2.819-1.719,2.2-3.3,5.3-5.02,7.5-3.507,4.47-5.639,8.665-9.077,13.135-1.444,1.857-3.438,4.332-3.782,6.67a6.711,6.711,0,0,0,.138,2.338c-.206-1.238-.138-2.682,1.65-2.888a19.8,19.8,0,0,1,6.671.275c1.238.275-2.132,6.258-3.989,9.352a15.6,15.6,0,0,1,2.338,1.307c.894.619,2.2,1.307,3.026.55a3.373,3.373,0,0,0,.688-1.788,5.228,5.228,0,0,1,4.539-3.782,46.068,46.068,0,0,0,.963,9.215,3.771,3.771,0,0,0,.963,2.2,4.417,4.417,0,0,0,2.063.756c5.433,1.032,10.865,1.926,16.3,2.751l-5.433,4.814,43.668,10.246s10.659-3.026,12.86-5.777a79.219,79.219,0,0,1-1.238-13.96l-1.307-.481,7.358-10.934a13.621,13.621,0,0,1,2.269.55s3.507,6.6,3.232,10.246a6.464,6.464,0,0,1-.55,2.269,6.23,6.23,0,0,0,1.513-.756c1.994-1.375,2.888-3.782,3.645-6.12C369.49,121.582,375.473,101.639,369.284,90.361Z" fill="#4949e7"/>
        <path id="Path-176" data-name="Path" d="M357.937,127.221a13.621,13.621,0,0,0-2.269-.55l-7.358,10.865,1.307.481v-.825a5.933,5.933,0,0,0,2.682,1.582c2.682.963,5.708,1.788,8.321.963a6.464,6.464,0,0,0,.55-2.269C361.444,133.754,357.937,127.221,357.937,127.221Z" fill="#3636cc"/>
        <path id="Path-177" data-name="Path" d="M272.871,122.063a19.8,19.8,0,0,0-6.671-.275c-1.788.206-1.857,1.65-1.65,2.888h0v.138a13.3,13.3,0,0,0,2.613,5.089,6.058,6.058,0,0,0,1.719,1.513C270.739,128.321,274.109,122.338,272.871,122.063Z" fill="#3636cc"/>
        <path id="Path-178" data-name="Path" d="M337.238,114.223h-.344a.634.634,0,0,1-.275-.894v-.069a86.106,86.106,0,0,1,10.109-14.235.668.668,0,0,1,.963.069.721.721,0,0,1,.069.825,85.62,85.62,0,0,0-9.9,13.96A.722.722,0,0,1,337.238,114.223Z" fill="#3636cc"/>
        <path id="Path-179" data-name="Path" d="M281.948,132.241a.731.731,0,0,1-.688-.619c-.344-2.957-.688-6.258.206-9.421a21.735,21.735,0,0,1,1.1-2.957l1.375-3.095a28.053,28.053,0,0,0,2.338-7.014.737.737,0,0,1,.756-.619.762.762,0,0,1,.619.825h0a28.132,28.132,0,0,1-2.476,7.358l-1.375,3.095a19.124,19.124,0,0,0-1.1,2.751c-.825,2.888-.481,6.052-.138,8.871a.683.683,0,0,1-.619.756v.069Z" fill="#3636cc"/>
        <path id="Path-180" data-name="Path" d="M350.854,151.977c-2.063-.756-7.083-1.169-11.415-1.444.138,1.032-.825,2.269-.825,3.3s1.994,1.925,2.544,2.957C344.183,155.691,350.1,153.284,350.854,151.977Z" fill="#3636cc"/>
        <path id="Path-181" data-name="Path" d="M339.37,150.533l-5.3-.275a7.909,7.909,0,0,0-.138,2.2c1.857,2.2,4.607,5.089,5.639,4.814s0-.138.688-.413c-.275-1.307-.55-2.132-.756-3.3A14.878,14.878,0,0,1,339.37,150.533Z" fill="#4ad295"/>
        <ellipse id="Oval-11" data-name="Oval" cx="19.117" cy="18.292" rx="19.117" ry="18.292" transform="translate(366.533 158.648)" fill="#8080f1"/>
        <path id="Path-182" data-name="Path" d="M352.367,168.825s14.785,4.4,16.367,4.745-1.444,5.57-1.444,5.57-8.046-3.782-10.8-4.126-4.126-5.3-4.126-5.3Z" fill="#5f5ff6"/>
        <ellipse id="Oval-12" data-name="Oval" cx="19.117" cy="18.292" rx="19.117" ry="18.292" transform="translate(366.052 161.536)" fill="#5f5ff6"/>
        <ellipse id="Oval-13" data-name="Oval" cx="14.647" cy="13.891" rx="14.647" ry="13.891" transform="translate(370.185 166.081) rotate(-1.1)" fill="#4949e7"/>
        <ellipse id="Oval-14" data-name="Oval" cx="14.647" cy="13.272" rx="14.647" ry="13.272" transform="translate(370.197 166.08) rotate(-1.1)" fill="#b3b3fc"/>
        <ellipse id="Oval-15" data-name="Oval" cx="14.647" cy="13.272" rx="14.647" ry="13.272" transform="translate(370.197 165.324) rotate(-1.1)" fill="#d7d7ff"/>
        <path id="Path-183" data-name="Path" d="M390.739,170.338a3.686,3.686,0,0,0-1.926-.138,29.818,29.818,0,0,0-4.126.963l-5.5,1.582a17.42,17.42,0,0,0-2.476.825l-1.169.619-.481.413-.275.481a3.716,3.716,0,0,0,.069,3.3,2.432,2.432,0,0,0,1.307,1.307,2.689,2.689,0,0,0,2.063-.206c3.095-1.169,5.776-3.232,8.665-4.814a34.4,34.4,0,0,0,3.782-2.269c.481-.344,1.031-.963.688-1.582A.875.875,0,0,0,390.739,170.338Z" fill="#fff"/>
        <path id="Path-184" data-name="Path" d="M396.653,176.252a3.324,3.324,0,0,0-1.788-2.269,2.649,2.649,0,0,0-1.788.069,6.929,6.929,0,0,0-1.582.825,44.262,44.262,0,0,1-4.332,2.476,29.046,29.046,0,0,0-4.539,2.476,4.613,4.613,0,0,0-1.65,1.788.946.946,0,0,0,.069.756,1.135,1.135,0,0,0,1.032.344,56.99,56.99,0,0,0,7.633-.55A16.957,16.957,0,0,0,394.246,181a4.327,4.327,0,0,0,1.925-1.375A3.873,3.873,0,0,0,396.653,176.252Z" fill="#fff"/>
        <path id="Path-185" data-name="Path" d="M381.043,185.4a18.759,18.759,0,0,1-4.195-2.2c-1.1-.756-2.063-1.788-3.163-2.544a.742.742,0,0,0-1.032.344.414.414,0,0,0-.069.275,4.806,4.806,0,0,0,.619,1.65,9.287,9.287,0,0,0,1.375,1.857,8.263,8.263,0,0,0,1.994,1.788h.069c1.307.825,4.47,2.063,5.914,1.032S381.8,185.673,381.043,185.4Z" fill="#fff"/>
        <path id="Path-186" data-name="Path" d="M356.355,169.032c-7.289-10.178-14.441-11.759-15.748-13.135-11.966-10.659-58.04-17.811-58.315-17.673s-.481-4.332-1.1-8.115l-.344-.138a13.511,13.511,0,0,0-6.12-2.819q-2.682-.413-5.364-.619c-3.3,8.527-5.089,20.08-5.089,20.08a16.226,16.226,0,0,0,1.375,9.009c1.513,2.888,13.2,5.5,20.905,6.327s38.785.688,41.88,1.032,3.3,2.888,4.264,4.745,5.158,8.94,6.739,9.834,1.65-.413,2.338-.413,2.2,2.269,3.576,2.613,2.269-1.65,3.438-1.65,2.613,1.65,4.607,1.65,1.857-1.719,2.338-1.925,2.888,1.307,4.057.413S358.762,172.4,356.355,169.032Z" fill="#e2ffe2"/>
        <path id="Path-187" data-name="Path" d="M280.848,129.971l.344.138c-.344-2.407-.825-4.607-1.375-5.158a20.667,20.667,0,0,0-8.252-3.163,40.749,40.749,0,0,0-2.132,4.676q2.682.206,5.364.619A13.381,13.381,0,0,1,280.848,129.971Z" fill="#abffad"/>
        <path id="Path-188" data-name="Path" d="M332.905,149.983c3.232-1.444,8.6-7.84,11.622-9.628s5.226-6.808,7.908-9.628c1.307-1.375,1.513-3.782,2.888-5.639-1.375-2.132-4.126-3.989-6.464-5.5a27.3,27.3,0,0,0-12.791-4.126c-1.375,2.338-3.3,5.708-3.3,5.433.206-3.163-4.883-15.2-3.645-25.1.344-2.751.688-11.278.619-12.722-.069-4.057.069-9.215,2.132-11.966s2.819-3.713,1.857-4.057c-4.4-1.169-10.934,8.734-14.991,10.246-2.407.894-10.384-1.788-17.33-4.057-4.676-1.513-8.734-3.232-9.628-3.3-2.063-.138-2.682,1.444-.619,2.544s11.14,6.6,12.309,7.427-.206,2.132-.344,3.438,1.582,2.476,1.307,3.026a2.574,2.574,0,0,0-.688,1.926c.138,1.582,1.238,2.063,1.444,2.957s.138,3.095,1.582,3.92,7.977,1.307,9.284,2.751-.275,13.41-1.238,18.292c-.619,3.095-1.307,16.711,1.719,26.682h0C320.734,151.152,329.261,151.633,332.905,149.983Z" fill="#e2ffe2"/>
        <path id="Path-189" data-name="Path" d="M337.926,113.33l.413-.138a1.941,1.941,0,0,0-1.032.275h.619Z" fill="#e2ffe2"/>
        <path id="Path-190" data-name="Path" d="M354.43,126.4c-1.788,2.407-7.84,10.453-11,13.2s-7.7,7.152-10.934,8.6-9.421,4.47-15.885-5.226h0c1.719,5.708,4.676,10.246,9.559,11,11.484,1.788,25.375-16.917,30.189-24.206A32.734,32.734,0,0,0,354.43,126.4Z" fill="#abffad"/>
        <path id="Path-191" data-name="Path" d="M357.937,127.221c-.481-1.032-2.957-6.4-6.67-9.215-5.02-3.851-10.521-4.951-12.86-4.814a1.941,1.941,0,0,0-1.032.275h-.069l-1.238,1.994a31.641,31.641,0,0,1,10.865,3.026l-.413-.275.413.275,1.926,1.1a22.627,22.627,0,0,1,5.845,6.464l-.275.344a32.734,32.734,0,0,1,1.926,3.37Z" fill="#abffad"/>
        <path id="Path-192" data-name="Path" d="M314.888,77.777a20.016,20.016,0,0,1-7.5-1.788c-1.1-.413-2.269-.894-3.507-1.238l-3.163-1.1c-2.682-.963-7.564-2.819-8.458-2.819a.688.688,0,1,1,0-1.375c.963.069,4.4,1.307,8.871,2.888l3.095,1.1c1.307.413,2.476.825,3.645,1.307,2.407.894,4.4,1.719,7.152,1.65h.069c1.1,0,4.332-.069,5.914-2.269a.688.688,0,0,1,1.1.825c-1.994,2.819-5.777,2.819-7.014,2.888h-.275Z" fill="#4ad295"/>
        <path id="Path-193" data-name="Path" d="M306.086,83a.67.67,0,0,1-.688-.55,1.5,1.5,0,0,0-.206-.344l-.413-.275-3.3-1.925-.275-.138a.65.65,0,0,1-.688-.688.731.731,0,0,1,.619-.688,1.579,1.579,0,0,1,.963.275l3.37,1.925.688.481a1.892,1.892,0,0,1,.55,1.032.707.707,0,0,1-.481.825Z" fill="#abffad"/>
        <path id="Path-194" data-name="Path" d="M319.84,76.814a.65.65,0,0,1-.688-.688.625.625,0,0,1,.275-.55A51.254,51.254,0,0,0,323.553,72a42.645,42.645,0,0,1,4.264-3.645l.413-.344a8.276,8.276,0,0,1,2.338-1.444,5.349,5.349,0,0,1,2.751-.138.7.7,0,1,1-.275,1.375,3.9,3.9,0,0,0-1.994.069,12.021,12.021,0,0,0-1.994,1.238l-.481.344a50.455,50.455,0,0,0-4.126,3.507,42.645,42.645,0,0,1-4.264,3.645Z" fill="#4ad295"/>
        <path id="Path-195" data-name="Path" d="M332.562,139.736h-.344a.676.676,0,0,1-.275-.894c2.063-4.057,1.857-8.665,1.307-12.653a26.666,26.666,0,0,0-.756-3.37c-.206-.756-.413-1.582-.55-2.338a.7.7,0,1,1,1.375-.275c.138.756.344,1.444.55,2.269a30.065,30.065,0,0,1,.825,3.576c.55,4.195.756,9.077-1.444,13.41A.654.654,0,0,1,332.562,139.736Z" fill="#4ad295"/>
        <path id="Path-196" data-name="Path" d="M330.98,73.994H330.7a.676.676,0,0,1-.275-.894,26.992,26.992,0,0,1,3.232-4.676l-.344-.344-1.513-.138a.654.654,0,0,1-.069-1.307s1.788-.069,2.338.413,1.032,1.719.688,2.2a23.3,23.3,0,0,0-3.163,4.539A.693.693,0,0,1,330.98,73.994Z" fill="#4ad295"/>
        <ellipse id="Oval-16" data-name="Oval" cx="1.169" cy="1.513" rx="1.169" ry="1.513" transform="translate(298.465 46.642) rotate(-7.239)" fill="#3636cc"/>
        <ellipse id="Oval-17" data-name="Oval" cx="1.238" cy="1.582" rx="1.238" ry="1.582" transform="translate(319.984 44.036) rotate(-7.239)" fill="#3636cc"/>
      </g>
    </g>
  </g>
</svg>
